<?xml version="1.0" encoding="utf-8" standalone="no"?>
<!DOCTYPE svg PUBLIC "-//W3C//DTD SVG 1.1//EN"
  "http://www.w3.org/Graphics/SVG/1.1/DTD/svg11.dtd">
<svg xmlns:xlink="http://www.w3.org/1999/xlink" width="2299.923437pt" height="246.35625pt" viewBox="0 0 2299.923437 246.35625" xmlns="http://www.w3.org/2000/svg" version="1.1">
 <metadata>
  <rdf:RDF xmlns:dc="http://purl.org/dc/elements/1.1/" xmlns:cc="http://creativecommons.org/ns#" xmlns:rdf="http://www.w3.org/1999/02/22-rdf-syntax-ns#">
   <cc:Work>
    <dc:type rdf:resource="http://purl.org/dc/dcmitype/StillImage"/>
    <dc:date>2025-10-25T17:09:13.046704</dc:date>
    <dc:format>image/svg+xml</dc:format>
    <dc:creator>
     <cc:Agent>
      <dc:title>Matplotlib v3.10.7, https://matplotlib.org/</dc:title>
     </cc:Agent>
    </dc:creator>
   </cc:Work>
  </rdf:RDF>
 </metadata>
 <defs>
  <style type="text/css">*{stroke-linejoin: round; stroke-linecap: butt}</style>
 </defs>
 <g id="figure_1">
  <g id="patch_1">
   <path d="M 0 246.35625 
L 2299.923437 246.35625 
L 2299.923437 -0 
L 0 -0 
z
" style="fill: #ffffff"/>
  </g>
  <g id="axes_1">
   <g id="patch_2">
    <path d="M 55.198438 216 
L 2287.198438 216 
L 2287.198438 0 
L 55.198438 0 
z
" style="fill: #ffffff"/>
   </g>
   <g id="line2d_1">
    <path d="M 55.198438 216 
L 55.198438 0 
" clip-path="url(#p89df631594)" style="fill: none; stroke-dasharray: 1.85,0.8; stroke-dashoffset: 0; stroke: #808080; stroke-opacity: 0.7; stroke-width: 0.5"/>
   </g>
   <g id="line2d_2">
    <path d="M 272.098178 216 
L 272.098178 0 
" clip-path="url(#p89df631594)" style="fill: none; stroke-dasharray: 1.85,0.8; stroke-dashoffset: 0; stroke: #808080; stroke-opacity: 0.7; stroke-width: 0.5"/>
   </g>
   <g id="line2d_3">
    <path d="M 488.997918 216 
L 488.997918 0 
" clip-path="url(#p89df631594)" style="fill: none; stroke-dasharray: 1.85,0.8; stroke-dashoffset: 0; stroke: #808080; stroke-opacity: 0.7; stroke-width: 0.5"/>
   </g>
   <g id="line2d_4">
    <path d="M 705.897659 216 
L 705.897659 0 
" clip-path="url(#p89df631594)" style="fill: none; stroke-dasharray: 1.85,0.8; stroke-dashoffset: 0; stroke: #808080; stroke-opacity: 0.7; stroke-width: 0.5"/>
   </g>
   <g id="line2d_5">
    <path d="M 922.797399 216 
L 922.797399 0 
" clip-path="url(#p89df631594)" style="fill: none; stroke-dasharray: 1.85,0.8; stroke-dashoffset: 0; stroke: #808080; stroke-opacity: 0.7; stroke-width: 0.5"/>
   </g>
   <g id="line2d_6">
    <path d="M 1139.697139 216 
L 1139.697139 0 
" clip-path="url(#p89df631594)" style="fill: none; stroke-dasharray: 1.85,0.8; stroke-dashoffset: 0; stroke: #808080; stroke-opacity: 0.7; stroke-width: 0.5"/>
   </g>
   <g id="line2d_7">
    <path d="M 1356.59688 216 
L 1356.59688 0 
" clip-path="url(#p89df631594)" style="fill: none; stroke-dasharray: 1.85,0.8; stroke-dashoffset: 0; stroke: #808080; stroke-opacity: 0.7; stroke-width: 0.5"/>
   </g>
   <g id="line2d_8">
    <path d="M 1573.49662 216 
L 1573.49662 0 
" clip-path="url(#p89df631594)" style="fill: none; stroke-dasharray: 1.85,0.8; stroke-dashoffset: 0; stroke: #808080; stroke-opacity: 0.7; stroke-width: 0.5"/>
   </g>
   <g id="line2d_9">
    <path d="M 1790.39636 216 
L 1790.39636 0 
" clip-path="url(#p89df631594)" style="fill: none; stroke-dasharray: 1.85,0.8; stroke-dashoffset: 0; stroke: #808080; stroke-opacity: 0.7; stroke-width: 0.5"/>
   </g>
   <g id="line2d_10">
    <path d="M 2007.296101 216 
L 2007.296101 0 
" clip-path="url(#p89df631594)" style="fill: none; stroke-dasharray: 1.85,0.8; stroke-dashoffset: 0; stroke: #808080; stroke-opacity: 0.7; stroke-width: 0.5"/>
   </g>
   <g id="line2d_11">
    <path d="M 2287.198438 216 
L 2287.198438 0 
" clip-path="url(#p89df631594)" style="fill: none; stroke-dasharray: 1.85,0.8; stroke-dashoffset: 0; stroke: #808080; stroke-opacity: 0.7; stroke-width: 0.5"/>
   </g>
   <g id="patch_3">
    <path d="M 55.198438 0 
L 94.714859 0 
L 94.714859 54 
L 55.198438 54 
z
" clip-path="url(#p89df631594)" style="fill: #4285f4; stroke: #ffffff; stroke-linejoin: miter"/>
   </g>
   <g id="patch_4">
    <path d="M 94.714859 0 
L 135.010764 0 
L 135.010764 54 
L 94.714859 54 
z
" clip-path="url(#p89df631594)" style="fill: #4285f4; stroke: #ffffff; stroke-linejoin: miter"/>
   </g>
   <g id="patch_5">
    <path d="M 135.010764 0 
L 187.642841 0 
L 187.642841 54 
L 135.010764 54 
z
" clip-path="url(#p89df631594)" style="fill: #4285f4; stroke: #ffffff; stroke-linejoin: miter"/>
   </g>
   <g id="patch_6">
    <path d="M 187.642841 0 
L 242.410026 0 
L 242.410026 54 
L 187.642841 54 
z
" clip-path="url(#p89df631594)" style="fill: #4285f4; stroke: #ffffff; stroke-linejoin: miter"/>
   </g>
   <g id="patch_7">
    <path d="M 242.410026 0 
L 297.821131 0 
L 297.821131 54 
L 242.410026 54 
z
" clip-path="url(#p89df631594)" style="fill: #4285f4; stroke: #ffffff; stroke-linejoin: miter"/>
   </g>
   <g id="patch_8">
    <path d="M 297.821131 0 
L 354.181173 0 
L 354.181173 54 
L 297.821131 54 
z
" clip-path="url(#p89df631594)" style="fill: #4285f4; stroke: #ffffff; stroke-linejoin: miter"/>
   </g>
   <g id="patch_9">
    <path d="M 354.181173 0 
L 410.914012 0 
L 410.914012 54 
L 354.181173 54 
z
" clip-path="url(#p89df631594)" style="fill: #4285f4; stroke: #ffffff; stroke-linejoin: miter"/>
   </g>
   <g id="patch_10">
    <path d="M 410.914012 0 
L 467.714631 0 
L 467.714631 54 
L 410.914012 54 
z
" clip-path="url(#p89df631594)" style="fill: #4285f4; stroke: #ffffff; stroke-linejoin: miter"/>
   </g>
   <g id="patch_11">
    <path d="M 1132.580117 0 
L 1206.597153 0 
L 1206.597153 54 
L 1132.580117 54 
z
" clip-path="url(#p89df631594)" style="fill: #34a853; stroke: #ffffff; stroke-linejoin: miter"/>
   </g>
   <g id="patch_12">
    <path d="M 1291.66252 0 
L 1366.289587 0 
L 1366.289587 54 
L 1291.66252 54 
z
" clip-path="url(#p89df631594)" style="fill: #34a853; stroke: #ffffff; stroke-linejoin: miter"/>
   </g>
   <g id="patch_13">
    <path d="M 1445.93246 0 
L 1520.966214 0 
L 1520.966214 54 
L 1445.93246 54 
z
" clip-path="url(#p89df631594)" style="fill: #34a853; stroke: #ffffff; stroke-linejoin: miter"/>
   </g>
   <g id="patch_14">
    <path d="M 1599.558479 0 
L 1674.660015 0 
L 1674.660015 54 
L 1599.558479 54 
z
" clip-path="url(#p89df631594)" style="fill: #34a853; stroke: #ffffff; stroke-linejoin: miter"/>
   </g>
   <g id="patch_15">
    <path d="M 1752.337234 0 
L 1827.50655 0 
L 1827.50655 54 
L 1752.337234 54 
z
" clip-path="url(#p89df631594)" style="fill: #34a853; stroke: #ffffff; stroke-linejoin: miter"/>
   </g>
   <g id="patch_16">
    <path d="M 1905.522676 0 
L 1980.759773 0 
L 1980.759773 54 
L 1905.522676 54 
z
" clip-path="url(#p89df631594)" style="fill: #34a853; stroke: #ffffff; stroke-linejoin: miter"/>
   </g>
   <g id="patch_17">
    <path d="M 2058.87757 0 
L 2134.046886 0 
L 2134.046886 54 
L 2058.87757 54 
z
" clip-path="url(#p89df631594)" style="fill: #34a853; stroke: #ffffff; stroke-linejoin: miter"/>
   </g>
   <g id="patch_18">
    <path d="M 2212.096902 0 
L 2287.198438 0 
L 2287.198438 54 
L 2212.096902 54 
z
" clip-path="url(#p89df631594)" style="fill: #34a853; stroke: #ffffff; stroke-linejoin: miter"/>
   </g>
   <g id="patch_19">
    <path d="M 94.714859 54 
L 141.212741 54 
L 141.212741 108 
L 94.714859 108 
z
" clip-path="url(#p89df631594)" style="fill: #4285f4; stroke: #ffffff; stroke-linejoin: miter"/>
   </g>
   <g id="patch_20">
    <path d="M 141.212741 54 
L 188.557887 54 
L 188.557887 108 
L 141.212741 108 
z
" clip-path="url(#p89df631594)" style="fill: #4285f4; stroke: #ffffff; stroke-linejoin: miter"/>
   </g>
   <g id="patch_21">
    <path d="M 188.557887 54 
L 242.443916 54 
L 242.443916 108 
L 188.557887 108 
z
" clip-path="url(#p89df631594)" style="fill: #4285f4; stroke: #ffffff; stroke-linejoin: miter"/>
   </g>
   <g id="patch_22">
    <path d="M 242.443916 54 
L 305.175388 54 
L 305.175388 108 
L 242.443916 108 
z
" clip-path="url(#p89df631594)" style="fill: #4285f4; stroke: #ffffff; stroke-linejoin: miter"/>
   </g>
   <g id="patch_23">
    <path d="M 305.175388 54 
L 370.584216 54 
L 370.584216 108 
L 305.175388 108 
z
" clip-path="url(#p89df631594)" style="fill: #4285f4; stroke: #ffffff; stroke-linejoin: miter"/>
   </g>
   <g id="patch_24">
    <path d="M 370.584216 54 
L 433.756266 54 
L 433.756266 108 
L 370.584216 108 
z
" clip-path="url(#p89df631594)" style="fill: #4285f4; stroke: #ffffff; stroke-linejoin: miter"/>
   </g>
   <g id="patch_25">
    <path d="M 433.756266 54 
L 491.675274 54 
L 491.675274 108 
L 433.756266 108 
z
" clip-path="url(#p89df631594)" style="fill: #4285f4; stroke: #ffffff; stroke-linejoin: miter"/>
   </g>
   <g id="patch_26">
    <path d="M 491.675274 54 
L 546.781365 54 
L 546.781365 108 
L 491.675274 108 
z
" clip-path="url(#p89df631594)" style="fill: #4285f4; stroke: #ffffff; stroke-linejoin: miter"/>
   </g>
   <g id="patch_27">
    <path d="M 1053.479492 54 
L 1132.580117 54 
L 1132.580117 108 
L 1053.479492 108 
z
" clip-path="url(#p89df631594)" style="fill: #34a853; stroke: #ffffff; stroke-linejoin: miter"/>
   </g>
   <g id="patch_28">
    <path d="M 1209.240619 54 
L 1291.66252 54 
L 1291.66252 108 
L 1209.240619 108 
z
" clip-path="url(#p89df631594)" style="fill: #34a853; stroke: #ffffff; stroke-linejoin: miter"/>
   </g>
   <g id="patch_29">
    <path d="M 1363.307215 54 
L 1445.93246 54 
L 1445.93246 108 
L 1363.307215 108 
z
" clip-path="url(#p89df631594)" style="fill: #34a853; stroke: #ffffff; stroke-linejoin: miter"/>
   </g>
   <g id="patch_30">
    <path d="M 1516.390985 54 
L 1599.558479 54 
L 1599.558479 108 
L 1516.390985 108 
z
" clip-path="url(#p89df631594)" style="fill: #34a853; stroke: #ffffff; stroke-linejoin: miter"/>
   </g>
   <g id="patch_31">
    <path d="M 1669.847552 54 
L 1752.337234 54 
L 1752.337234 108 
L 1669.847552 108 
z
" clip-path="url(#p89df631594)" style="fill: #34a853; stroke: #ffffff; stroke-linejoin: miter"/>
   </g>
   <g id="patch_32">
    <path d="M 1822.897431 54 
L 1905.522676 54 
L 1905.522676 108 
L 1822.897431 108 
z
" clip-path="url(#p89df631594)" style="fill: #34a853; stroke: #ffffff; stroke-linejoin: miter"/>
   </g>
   <g id="patch_33">
    <path d="M 1976.048982 54 
L 2058.87757 54 
L 2058.87757 108 
L 1976.048982 108 
z
" clip-path="url(#p89df631594)" style="fill: #34a853; stroke: #ffffff; stroke-linejoin: miter"/>
   </g>
   <g id="patch_34">
    <path d="M 2129.403876 54 
L 2212.096902 54 
L 2212.096902 108 
L 2129.403876 108 
z
" clip-path="url(#p89df631594)" style="fill: #34a853; stroke: #ffffff; stroke-linejoin: miter"/>
   </g>
   <g id="patch_35">
    <path d="M 141.212741 108 
L 177.407885 108 
L 177.407885 162 
L 141.212741 162 
z
" clip-path="url(#p89df631594)" style="fill: #4285f4; stroke: #ffffff; stroke-linejoin: miter"/>
   </g>
   <g id="patch_36">
    <path d="M 188.557887 108 
L 225.532515 108 
L 225.532515 162 
L 188.557887 162 
z
" clip-path="url(#p89df631594)" style="fill: #4285f4; stroke: #ffffff; stroke-linejoin: miter"/>
   </g>
   <g id="patch_37">
    <path d="M 242.443916 108 
L 280.706386 108 
L 280.706386 162 
L 242.443916 162 
z
" clip-path="url(#p89df631594)" style="fill: #4285f4; stroke: #ffffff; stroke-linejoin: miter"/>
   </g>
   <g id="patch_38">
    <path d="M 305.175388 108 
L 343.607311 108 
L 343.607311 162 
L 305.175388 162 
z
" clip-path="url(#p89df631594)" style="fill: #4285f4; stroke: #ffffff; stroke-linejoin: miter"/>
   </g>
   <g id="patch_39">
    <path d="M 370.584216 108 
L 408.880577 108 
L 408.880577 162 
L 370.584216 162 
z
" clip-path="url(#p89df631594)" style="fill: #4285f4; stroke: #ffffff; stroke-linejoin: miter"/>
   </g>
   <g id="patch_40">
    <path d="M 433.756266 108 
L 471.815392 108 
L 471.815392 162 
L 433.756266 162 
z
" clip-path="url(#p89df631594)" style="fill: #4285f4; stroke: #ffffff; stroke-linejoin: miter"/>
   </g>
   <g id="patch_41">
    <path d="M 491.675274 108 
L 529.531057 108 
L 529.531057 162 
L 491.675274 162 
z
" clip-path="url(#p89df631594)" style="fill: #4285f4; stroke: #ffffff; stroke-linejoin: miter"/>
   </g>
   <g id="patch_42">
    <path d="M 546.781365 108 
L 584.569366 108 
L 584.569366 162 
L 546.781365 162 
z
" clip-path="url(#p89df631594)" style="fill: #4285f4; stroke: #ffffff; stroke-linejoin: miter"/>
   </g>
   <g id="patch_43">
    <path d="M 991.86641 108 
L 1053.479492 108 
L 1053.479492 162 
L 991.86641 162 
z
" clip-path="url(#p89df631594)" style="fill: #34a853; stroke: #ffffff; stroke-linejoin: miter"/>
   </g>
   <g id="patch_44">
    <path d="M 1146.814162 108 
L 1209.240619 108 
L 1209.240619 162 
L 1146.814162 162 
z
" clip-path="url(#p89df631594)" style="fill: #34a853; stroke: #ffffff; stroke-linejoin: miter"/>
   </g>
   <g id="patch_45">
    <path d="M 1300.406291 108 
L 1363.307215 108 
L 1363.307215 162 
L 1300.406291 162 
z
" clip-path="url(#p89df631594)" style="fill: #34a853; stroke: #ffffff; stroke-linejoin: miter"/>
   </g>
   <g id="patch_46">
    <path d="M 1453.591732 108 
L 1516.390985 108 
L 1516.390985 162 
L 1453.591732 162 
z
" clip-path="url(#p89df631594)" style="fill: #34a853; stroke: #ffffff; stroke-linejoin: miter"/>
   </g>
   <g id="patch_47">
    <path d="M 1607.048299 108 
L 1669.847552 108 
L 1669.847552 162 
L 1607.048299 162 
z
" clip-path="url(#p89df631594)" style="fill: #34a853; stroke: #ffffff; stroke-linejoin: miter"/>
   </g>
   <g id="patch_48">
    <path d="M 1760.098178 108 
L 1822.897431 108 
L 1822.897431 162 
L 1760.098178 162 
z
" clip-path="url(#p89df631594)" style="fill: #34a853; stroke: #ffffff; stroke-linejoin: miter"/>
   </g>
   <g id="patch_49">
    <path d="M 1913.283619 108 
L 1976.048982 108 
L 1976.048982 162 
L 1913.283619 162 
z
" clip-path="url(#p89df631594)" style="fill: #34a853; stroke: #ffffff; stroke-linejoin: miter"/>
   </g>
   <g id="patch_50">
    <path d="M 2066.604623 108 
L 2129.403876 108 
L 2129.403876 162 
L 2066.604623 162 
z
" clip-path="url(#p89df631594)" style="fill: #34a853; stroke: #ffffff; stroke-linejoin: miter"/>
   </g>
   <g id="patch_51">
    <path d="M 177.407885 162 
L 234.886316 162 
L 234.886316 216 
L 177.407885 216 
z
" clip-path="url(#p89df631594)" style="fill: #4285f4; stroke: #ffffff; stroke-linejoin: miter"/>
   </g>
   <g id="patch_52">
    <path d="M 234.886316 162 
L 303.819765 162 
L 303.819765 216 
L 234.886316 216 
z
" clip-path="url(#p89df631594)" style="fill: #4285f4; stroke: #ffffff; stroke-linejoin: miter"/>
   </g>
   <g id="patch_53">
    <path d="M 303.819765 162 
L 383.191514 162 
L 383.191514 216 
L 303.819765 216 
z
" clip-path="url(#p89df631594)" style="fill: #4285f4; stroke: #ffffff; stroke-linejoin: miter"/>
   </g>
   <g id="patch_54">
    <path d="M 383.191514 162 
L 470.019191 162 
L 470.019191 216 
L 383.191514 216 
z
" clip-path="url(#p89df631594)" style="fill: #4285f4; stroke: #ffffff; stroke-linejoin: miter"/>
   </g>
   <g id="patch_55">
    <path d="M 470.019191 162 
L 558.13471 162 
L 558.13471 216 
L 470.019191 216 
z
" clip-path="url(#p89df631594)" style="fill: #4285f4; stroke: #ffffff; stroke-linejoin: miter"/>
   </g>
   <g id="patch_56">
    <path d="M 558.13471 162 
L 646.724698 162 
L 646.724698 216 
L 558.13471 216 
z
" clip-path="url(#p89df631594)" style="fill: #4285f4; stroke: #ffffff; stroke-linejoin: miter"/>
   </g>
   <g id="patch_57">
    <path d="M 646.724698 162 
L 735.585811 162 
L 735.585811 216 
L 646.724698 216 
z
" clip-path="url(#p89df631594)" style="fill: #4285f4; stroke: #ffffff; stroke-linejoin: miter"/>
   </g>
   <g id="patch_58">
    <path d="M 735.585811 162 
L 824.446923 162 
L 824.446923 216 
L 735.585811 216 
z
" clip-path="url(#p89df631594)" style="fill: #4285f4; stroke: #ffffff; stroke-linejoin: miter"/>
   </g>
   <g id="patch_59">
    <path d="M 824.446923 162 
L 991.86641 162 
L 991.86641 216 
L 824.446923 216 
z
" clip-path="url(#p89df631594)" style="fill: #34a853; stroke: #ffffff; stroke-linejoin: miter"/>
   </g>
   <g id="patch_60">
    <path d="M 991.86641 162 
L 1146.814162 162 
L 1146.814162 216 
L 991.86641 216 
z
" clip-path="url(#p89df631594)" style="fill: #34a853; stroke: #ffffff; stroke-linejoin: miter"/>
   </g>
   <g id="patch_61">
    <path d="M 1146.814162 162 
L 1300.406291 162 
L 1300.406291 216 
L 1146.814162 216 
z
" clip-path="url(#p89df631594)" style="fill: #34a853; stroke: #ffffff; stroke-linejoin: miter"/>
   </g>
   <g id="patch_62">
    <path d="M 1300.406291 162 
L 1453.591732 162 
L 1453.591732 216 
L 1300.406291 216 
z
" clip-path="url(#p89df631594)" style="fill: #34a853; stroke: #ffffff; stroke-linejoin: miter"/>
   </g>
   <g id="patch_63">
    <path d="M 1453.591732 162 
L 1607.048299 162 
L 1607.048299 216 
L 1453.591732 216 
z
" clip-path="url(#p89df631594)" style="fill: #34a853; stroke: #ffffff; stroke-linejoin: miter"/>
   </g>
   <g id="patch_64">
    <path d="M 1607.048299 162 
L 1760.098178 162 
L 1760.098178 216 
L 1607.048299 216 
z
" clip-path="url(#p89df631594)" style="fill: #34a853; stroke: #ffffff; stroke-linejoin: miter"/>
   </g>
   <g id="patch_65">
    <path d="M 1760.098178 162 
L 1913.283619 162 
L 1913.283619 216 
L 1760.098178 216 
z
" clip-path="url(#p89df631594)" style="fill: #34a853; stroke: #ffffff; stroke-linejoin: miter"/>
   </g>
   <g id="patch_66">
    <path d="M 1913.283619 162 
L 2066.604623 162 
L 2066.604623 216 
L 1913.283619 216 
z
" clip-path="url(#p89df631594)" style="fill: #34a853; stroke: #ffffff; stroke-linejoin: miter"/>
   </g>
   <g id="matplotlib.axis_1">
    <g id="xtick_1">
     <g id="line2d_12">
      <defs>
       <path id="m0565f730fc" d="M 0 0 
L 0 3.5 
" style="stroke: #000000; stroke-width: 0.8"/>
      </defs>
      <g>
       <use xlink:href="#m0565f730fc" x="55.198438" y="216" style="stroke: #000000; stroke-width: 0.8"/>
      </g>
     </g>
     <g id="text_1">
      <!-- 0 -->
      <g transform="translate(52.017188 230.598438) scale(0.1 -0.1)">
       <defs>
        <path id="DejaVuSans-30" d="M 2034 4250 
Q 1547 4250 1301 3770 
Q 1056 3291 1056 2328 
Q 1056 1369 1301 889 
Q 1547 409 2034 409 
Q 2525 409 2770 889 
Q 3016 1369 3016 2328 
Q 3016 3291 2770 3770 
Q 2525 4250 2034 4250 
z
M 2034 4750 
Q 2819 4750 3233 4129 
Q 3647 3509 3647 2328 
Q 3647 1150 3233 529 
Q 2819 -91 2034 -91 
Q 1250 -91 836 529 
Q 422 1150 422 2328 
Q 422 3509 836 4129 
Q 1250 4750 2034 4750 
z
" transform="scale(0.015625)"/>
       </defs>
       <use xlink:href="#DejaVuSans-30"/>
      </g>
     </g>
    </g>
    <g id="xtick_2">
     <g id="line2d_13">
      <g>
       <use xlink:href="#m0565f730fc" x="272.098178" y="216" style="stroke: #000000; stroke-width: 0.8"/>
      </g>
     </g>
     <g id="text_2">
      <!-- 100 -->
      <g transform="translate(262.554428 230.598438) scale(0.1 -0.1)">
       <defs>
        <path id="DejaVuSans-31" d="M 794 531 
L 1825 531 
L 1825 4091 
L 703 3866 
L 703 4441 
L 1819 4666 
L 2450 4666 
L 2450 531 
L 3481 531 
L 3481 0 
L 794 0 
L 794 531 
z
" transform="scale(0.015625)"/>
       </defs>
       <use xlink:href="#DejaVuSans-31"/>
       <use xlink:href="#DejaVuSans-30" transform="translate(63.623047 0)"/>
       <use xlink:href="#DejaVuSans-30" transform="translate(127.246094 0)"/>
      </g>
     </g>
    </g>
    <g id="xtick_3">
     <g id="line2d_14">
      <g>
       <use xlink:href="#m0565f730fc" x="488.997918" y="216" style="stroke: #000000; stroke-width: 0.8"/>
      </g>
     </g>
     <g id="text_3">
      <!-- 200 -->
      <g transform="translate(479.454168 230.598438) scale(0.1 -0.1)">
       <defs>
        <path id="DejaVuSans-32" d="M 1228 531 
L 3431 531 
L 3431 0 
L 469 0 
L 469 531 
Q 828 903 1448 1529 
Q 2069 2156 2228 2338 
Q 2531 2678 2651 2914 
Q 2772 3150 2772 3378 
Q 2772 3750 2511 3984 
Q 2250 4219 1831 4219 
Q 1534 4219 1204 4116 
Q 875 4013 500 3803 
L 500 4441 
Q 881 4594 1212 4672 
Q 1544 4750 1819 4750 
Q 2544 4750 2975 4387 
Q 3406 4025 3406 3419 
Q 3406 3131 3298 2873 
Q 3191 2616 2906 2266 
Q 2828 2175 2409 1742 
Q 1991 1309 1228 531 
z
" transform="scale(0.015625)"/>
       </defs>
       <use xlink:href="#DejaVuSans-32"/>
       <use xlink:href="#DejaVuSans-30" transform="translate(63.623047 0)"/>
       <use xlink:href="#DejaVuSans-30" transform="translate(127.246094 0)"/>
      </g>
     </g>
    </g>
    <g id="xtick_4">
     <g id="line2d_15">
      <g>
       <use xlink:href="#m0565f730fc" x="705.897659" y="216" style="stroke: #000000; stroke-width: 0.8"/>
      </g>
     </g>
     <g id="text_4">
      <!-- 300 -->
      <g transform="translate(696.353909 230.598438) scale(0.1 -0.1)">
       <defs>
        <path id="DejaVuSans-33" d="M 2597 2516 
Q 3050 2419 3304 2112 
Q 3559 1806 3559 1356 
Q 3559 666 3084 287 
Q 2609 -91 1734 -91 
Q 1441 -91 1130 -33 
Q 819 25 488 141 
L 488 750 
Q 750 597 1062 519 
Q 1375 441 1716 441 
Q 2309 441 2620 675 
Q 2931 909 2931 1356 
Q 2931 1769 2642 2001 
Q 2353 2234 1838 2234 
L 1294 2234 
L 1294 2753 
L 1863 2753 
Q 2328 2753 2575 2939 
Q 2822 3125 2822 3475 
Q 2822 3834 2567 4026 
Q 2313 4219 1838 4219 
Q 1578 4219 1281 4162 
Q 984 4106 628 3988 
L 628 4550 
Q 988 4650 1302 4700 
Q 1616 4750 1894 4750 
Q 2613 4750 3031 4423 
Q 3450 4097 3450 3541 
Q 3450 3153 3228 2886 
Q 3006 2619 2597 2516 
z
" transform="scale(0.015625)"/>
       </defs>
       <use xlink:href="#DejaVuSans-33"/>
       <use xlink:href="#DejaVuSans-30" transform="translate(63.623047 0)"/>
       <use xlink:href="#DejaVuSans-30" transform="translate(127.246094 0)"/>
      </g>
     </g>
    </g>
    <g id="xtick_5">
     <g id="line2d_16">
      <g>
       <use xlink:href="#m0565f730fc" x="922.797399" y="216" style="stroke: #000000; stroke-width: 0.8"/>
      </g>
     </g>
     <g id="text_5">
      <!-- 400 -->
      <g transform="translate(913.253649 230.598438) scale(0.1 -0.1)">
       <defs>
        <path id="DejaVuSans-34" d="M 2419 4116 
L 825 1625 
L 2419 1625 
L 2419 4116 
z
M 2253 4666 
L 3047 4666 
L 3047 1625 
L 3713 1625 
L 3713 1100 
L 3047 1100 
L 3047 0 
L 2419 0 
L 2419 1100 
L 313 1100 
L 313 1709 
L 2253 4666 
z
" transform="scale(0.015625)"/>
       </defs>
       <use xlink:href="#DejaVuSans-34"/>
       <use xlink:href="#DejaVuSans-30" transform="translate(63.623047 0)"/>
       <use xlink:href="#DejaVuSans-30" transform="translate(127.246094 0)"/>
      </g>
     </g>
    </g>
    <g id="xtick_6">
     <g id="line2d_17">
      <g>
       <use xlink:href="#m0565f730fc" x="1139.697139" y="216" style="stroke: #000000; stroke-width: 0.8"/>
      </g>
     </g>
     <g id="text_6">
      <!-- 500 -->
      <g transform="translate(1130.153389 230.598438) scale(0.1 -0.1)">
       <defs>
        <path id="DejaVuSans-35" d="M 691 4666 
L 3169 4666 
L 3169 4134 
L 1269 4134 
L 1269 2991 
Q 1406 3038 1543 3061 
Q 1681 3084 1819 3084 
Q 2600 3084 3056 2656 
Q 3513 2228 3513 1497 
Q 3513 744 3044 326 
Q 2575 -91 1722 -91 
Q 1428 -91 1123 -41 
Q 819 9 494 109 
L 494 744 
Q 775 591 1075 516 
Q 1375 441 1709 441 
Q 2250 441 2565 725 
Q 2881 1009 2881 1497 
Q 2881 1984 2565 2268 
Q 2250 2553 1709 2553 
Q 1456 2553 1204 2497 
Q 953 2441 691 2322 
L 691 4666 
z
" transform="scale(0.015625)"/>
       </defs>
       <use xlink:href="#DejaVuSans-35"/>
       <use xlink:href="#DejaVuSans-30" transform="translate(63.623047 0)"/>
       <use xlink:href="#DejaVuSans-30" transform="translate(127.246094 0)"/>
      </g>
     </g>
    </g>
    <g id="xtick_7">
     <g id="line2d_18">
      <g>
       <use xlink:href="#m0565f730fc" x="1356.59688" y="216" style="stroke: #000000; stroke-width: 0.8"/>
      </g>
     </g>
     <g id="text_7">
      <!-- 600 -->
      <g transform="translate(1347.05313 230.598438) scale(0.1 -0.1)">
       <defs>
        <path id="DejaVuSans-36" d="M 2113 2584 
Q 1688 2584 1439 2293 
Q 1191 2003 1191 1497 
Q 1191 994 1439 701 
Q 1688 409 2113 409 
Q 2538 409 2786 701 
Q 3034 994 3034 1497 
Q 3034 2003 2786 2293 
Q 2538 2584 2113 2584 
z
M 3366 4563 
L 3366 3988 
Q 3128 4100 2886 4159 
Q 2644 4219 2406 4219 
Q 1781 4219 1451 3797 
Q 1122 3375 1075 2522 
Q 1259 2794 1537 2939 
Q 1816 3084 2150 3084 
Q 2853 3084 3261 2657 
Q 3669 2231 3669 1497 
Q 3669 778 3244 343 
Q 2819 -91 2113 -91 
Q 1303 -91 875 529 
Q 447 1150 447 2328 
Q 447 3434 972 4092 
Q 1497 4750 2381 4750 
Q 2619 4750 2861 4703 
Q 3103 4656 3366 4563 
z
" transform="scale(0.015625)"/>
       </defs>
       <use xlink:href="#DejaVuSans-36"/>
       <use xlink:href="#DejaVuSans-30" transform="translate(63.623047 0)"/>
       <use xlink:href="#DejaVuSans-30" transform="translate(127.246094 0)"/>
      </g>
     </g>
    </g>
    <g id="xtick_8">
     <g id="line2d_19">
      <g>
       <use xlink:href="#m0565f730fc" x="1573.49662" y="216" style="stroke: #000000; stroke-width: 0.8"/>
      </g>
     </g>
     <g id="text_8">
      <!-- 700 -->
      <g transform="translate(1563.95287 230.598438) scale(0.1 -0.1)">
       <defs>
        <path id="DejaVuSans-37" d="M 525 4666 
L 3525 4666 
L 3525 4397 
L 1831 0 
L 1172 0 
L 2766 4134 
L 525 4134 
L 525 4666 
z
" transform="scale(0.015625)"/>
       </defs>
       <use xlink:href="#DejaVuSans-37"/>
       <use xlink:href="#DejaVuSans-30" transform="translate(63.623047 0)"/>
       <use xlink:href="#DejaVuSans-30" transform="translate(127.246094 0)"/>
      </g>
     </g>
    </g>
    <g id="xtick_9">
     <g id="line2d_20">
      <g>
       <use xlink:href="#m0565f730fc" x="1790.39636" y="216" style="stroke: #000000; stroke-width: 0.8"/>
      </g>
     </g>
     <g id="text_9">
      <!-- 800 -->
      <g transform="translate(1780.85261 230.598438) scale(0.1 -0.1)">
       <defs>
        <path id="DejaVuSans-38" d="M 2034 2216 
Q 1584 2216 1326 1975 
Q 1069 1734 1069 1313 
Q 1069 891 1326 650 
Q 1584 409 2034 409 
Q 2484 409 2743 651 
Q 3003 894 3003 1313 
Q 3003 1734 2745 1975 
Q 2488 2216 2034 2216 
z
M 1403 2484 
Q 997 2584 770 2862 
Q 544 3141 544 3541 
Q 544 4100 942 4425 
Q 1341 4750 2034 4750 
Q 2731 4750 3128 4425 
Q 3525 4100 3525 3541 
Q 3525 3141 3298 2862 
Q 3072 2584 2669 2484 
Q 3125 2378 3379 2068 
Q 3634 1759 3634 1313 
Q 3634 634 3220 271 
Q 2806 -91 2034 -91 
Q 1263 -91 848 271 
Q 434 634 434 1313 
Q 434 1759 690 2068 
Q 947 2378 1403 2484 
z
M 1172 3481 
Q 1172 3119 1398 2916 
Q 1625 2713 2034 2713 
Q 2441 2713 2670 2916 
Q 2900 3119 2900 3481 
Q 2900 3844 2670 4047 
Q 2441 4250 2034 4250 
Q 1625 4250 1398 4047 
Q 1172 3844 1172 3481 
z
" transform="scale(0.015625)"/>
       </defs>
       <use xlink:href="#DejaVuSans-38"/>
       <use xlink:href="#DejaVuSans-30" transform="translate(63.623047 0)"/>
       <use xlink:href="#DejaVuSans-30" transform="translate(127.246094 0)"/>
      </g>
     </g>
    </g>
    <g id="xtick_10">
     <g id="line2d_21">
      <g>
       <use xlink:href="#m0565f730fc" x="2007.296101" y="216" style="stroke: #000000; stroke-width: 0.8"/>
      </g>
     </g>
     <g id="text_10">
      <!-- 900 -->
      <g transform="translate(1997.752351 230.598438) scale(0.1 -0.1)">
       <defs>
        <path id="DejaVuSans-39" d="M 703 97 
L 703 672 
Q 941 559 1184 500 
Q 1428 441 1663 441 
Q 2288 441 2617 861 
Q 2947 1281 2994 2138 
Q 2813 1869 2534 1725 
Q 2256 1581 1919 1581 
Q 1219 1581 811 2004 
Q 403 2428 403 3163 
Q 403 3881 828 4315 
Q 1253 4750 1959 4750 
Q 2769 4750 3195 4129 
Q 3622 3509 3622 2328 
Q 3622 1225 3098 567 
Q 2575 -91 1691 -91 
Q 1453 -91 1209 -44 
Q 966 3 703 97 
z
M 1959 2075 
Q 2384 2075 2632 2365 
Q 2881 2656 2881 3163 
Q 2881 3666 2632 3958 
Q 2384 4250 1959 4250 
Q 1534 4250 1286 3958 
Q 1038 3666 1038 3163 
Q 1038 2656 1286 2365 
Q 1534 2075 1959 2075 
z
" transform="scale(0.015625)"/>
       </defs>
       <use xlink:href="#DejaVuSans-39"/>
       <use xlink:href="#DejaVuSans-30" transform="translate(63.623047 0)"/>
       <use xlink:href="#DejaVuSans-30" transform="translate(127.246094 0)"/>
      </g>
     </g>
    </g>
    <g id="xtick_11">
     <g id="line2d_22">
      <g>
       <use xlink:href="#m0565f730fc" x="2287.198438" y="216" style="stroke: #000000; stroke-width: 0.8"/>
      </g>
     </g>
     <g id="text_11">
      <!-- 1029 -->
      <g transform="translate(2274.473438 230.598438) scale(0.1 -0.1)">
       <use xlink:href="#DejaVuSans-31"/>
       <use xlink:href="#DejaVuSans-30" transform="translate(63.623047 0)"/>
       <use xlink:href="#DejaVuSans-32" transform="translate(127.246094 0)"/>
       <use xlink:href="#DejaVuSans-39" transform="translate(190.869141 0)"/>
      </g>
     </g>
    </g>
    <g id="text_12">
     <!-- Time (ms) -->
     <g transform="translate(1145.999219 244.276563) scale(0.1 -0.1)">
      <defs>
       <path id="DejaVuSans-54" d="M -19 4666 
L 3928 4666 
L 3928 4134 
L 2272 4134 
L 2272 0 
L 1638 0 
L 1638 4134 
L -19 4134 
L -19 4666 
z
" transform="scale(0.015625)"/>
       <path id="DejaVuSans-69" d="M 603 3500 
L 1178 3500 
L 1178 0 
L 603 0 
L 603 3500 
z
M 603 4863 
L 1178 4863 
L 1178 4134 
L 603 4134 
L 603 4863 
z
" transform="scale(0.015625)"/>
       <path id="DejaVuSans-6d" d="M 3328 2828 
Q 3544 3216 3844 3400 
Q 4144 3584 4550 3584 
Q 5097 3584 5394 3201 
Q 5691 2819 5691 2113 
L 5691 0 
L 5113 0 
L 5113 2094 
Q 5113 2597 4934 2840 
Q 4756 3084 4391 3084 
Q 3944 3084 3684 2787 
Q 3425 2491 3425 1978 
L 3425 0 
L 2847 0 
L 2847 2094 
Q 2847 2600 2669 2842 
Q 2491 3084 2119 3084 
Q 1678 3084 1418 2786 
Q 1159 2488 1159 1978 
L 1159 0 
L 581 0 
L 581 3500 
L 1159 3500 
L 1159 2956 
Q 1356 3278 1631 3431 
Q 1906 3584 2284 3584 
Q 2666 3584 2933 3390 
Q 3200 3197 3328 2828 
z
" transform="scale(0.015625)"/>
       <path id="DejaVuSans-65" d="M 3597 1894 
L 3597 1613 
L 953 1613 
Q 991 1019 1311 708 
Q 1631 397 2203 397 
Q 2534 397 2845 478 
Q 3156 559 3463 722 
L 3463 178 
Q 3153 47 2828 -22 
Q 2503 -91 2169 -91 
Q 1331 -91 842 396 
Q 353 884 353 1716 
Q 353 2575 817 3079 
Q 1281 3584 2069 3584 
Q 2775 3584 3186 3129 
Q 3597 2675 3597 1894 
z
M 3022 2063 
Q 3016 2534 2758 2815 
Q 2500 3097 2075 3097 
Q 1594 3097 1305 2825 
Q 1016 2553 972 2059 
L 3022 2063 
z
" transform="scale(0.015625)"/>
       <path id="DejaVuSans-20" transform="scale(0.015625)"/>
       <path id="DejaVuSans-28" d="M 1984 4856 
Q 1566 4138 1362 3434 
Q 1159 2731 1159 2009 
Q 1159 1288 1364 580 
Q 1569 -128 1984 -844 
L 1484 -844 
Q 1016 -109 783 600 
Q 550 1309 550 2009 
Q 550 2706 781 3412 
Q 1013 4119 1484 4856 
L 1984 4856 
z
" transform="scale(0.015625)"/>
       <path id="DejaVuSans-73" d="M 2834 3397 
L 2834 2853 
Q 2591 2978 2328 3040 
Q 2066 3103 1784 3103 
Q 1356 3103 1142 2972 
Q 928 2841 928 2578 
Q 928 2378 1081 2264 
Q 1234 2150 1697 2047 
L 1894 2003 
Q 2506 1872 2764 1633 
Q 3022 1394 3022 966 
Q 3022 478 2636 193 
Q 2250 -91 1575 -91 
Q 1294 -91 989 -36 
Q 684 19 347 128 
L 347 722 
Q 666 556 975 473 
Q 1284 391 1588 391 
Q 1994 391 2212 530 
Q 2431 669 2431 922 
Q 2431 1156 2273 1281 
Q 2116 1406 1581 1522 
L 1381 1569 
Q 847 1681 609 1914 
Q 372 2147 372 2553 
Q 372 3047 722 3315 
Q 1072 3584 1716 3584 
Q 2034 3584 2315 3537 
Q 2597 3491 2834 3397 
z
" transform="scale(0.015625)"/>
       <path id="DejaVuSans-29" d="M 513 4856 
L 1013 4856 
Q 1481 4119 1714 3412 
Q 1947 2706 1947 2009 
Q 1947 1309 1714 600 
Q 1481 -109 1013 -844 
L 513 -844 
Q 928 -128 1133 580 
Q 1338 1288 1338 2009 
Q 1338 2731 1133 3434 
Q 928 4138 513 4856 
z
" transform="scale(0.015625)"/>
      </defs>
      <use xlink:href="#DejaVuSans-54"/>
      <use xlink:href="#DejaVuSans-69" transform="translate(57.958984 0)"/>
      <use xlink:href="#DejaVuSans-6d" transform="translate(85.742188 0)"/>
      <use xlink:href="#DejaVuSans-65" transform="translate(183.154297 0)"/>
      <use xlink:href="#DejaVuSans-20" transform="translate(244.677734 0)"/>
      <use xlink:href="#DejaVuSans-28" transform="translate(276.464844 0)"/>
      <use xlink:href="#DejaVuSans-6d" transform="translate(315.478516 0)"/>
      <use xlink:href="#DejaVuSans-73" transform="translate(412.890625 0)"/>
      <use xlink:href="#DejaVuSans-29" transform="translate(464.990234 0)"/>
     </g>
    </g>
   </g>
   <g id="matplotlib.axis_2">
    <g id="ytick_1">
     <g id="line2d_23">
      <defs>
       <path id="mb936a9fe2b" d="M 0 0 
L -3.5 0 
" style="stroke: #000000; stroke-width: 0.8"/>
      </defs>
      <g>
       <use xlink:href="#mb936a9fe2b" x="55.198438" y="27" style="stroke: #000000; stroke-width: 0.8"/>
      </g>
     </g>
     <g id="text_13">
      <!-- Rank 0 -->
      <g transform="translate(13.678125 30.799219) scale(0.1 -0.1)">
       <defs>
        <path id="DejaVuSans-52" d="M 2841 2188 
Q 3044 2119 3236 1894 
Q 3428 1669 3622 1275 
L 4263 0 
L 3584 0 
L 2988 1197 
Q 2756 1666 2539 1819 
Q 2322 1972 1947 1972 
L 1259 1972 
L 1259 0 
L 628 0 
L 628 4666 
L 2053 4666 
Q 2853 4666 3247 4331 
Q 3641 3997 3641 3322 
Q 3641 2881 3436 2590 
Q 3231 2300 2841 2188 
z
M 1259 4147 
L 1259 2491 
L 2053 2491 
Q 2509 2491 2742 2702 
Q 2975 2913 2975 3322 
Q 2975 3731 2742 3939 
Q 2509 4147 2053 4147 
L 1259 4147 
z
" transform="scale(0.015625)"/>
        <path id="DejaVuSans-61" d="M 2194 1759 
Q 1497 1759 1228 1600 
Q 959 1441 959 1056 
Q 959 750 1161 570 
Q 1363 391 1709 391 
Q 2188 391 2477 730 
Q 2766 1069 2766 1631 
L 2766 1759 
L 2194 1759 
z
M 3341 1997 
L 3341 0 
L 2766 0 
L 2766 531 
Q 2569 213 2275 61 
Q 1981 -91 1556 -91 
Q 1019 -91 701 211 
Q 384 513 384 1019 
Q 384 1609 779 1909 
Q 1175 2209 1959 2209 
L 2766 2209 
L 2766 2266 
Q 2766 2663 2505 2880 
Q 2244 3097 1772 3097 
Q 1472 3097 1187 3025 
Q 903 2953 641 2809 
L 641 3341 
Q 956 3463 1253 3523 
Q 1550 3584 1831 3584 
Q 2591 3584 2966 3190 
Q 3341 2797 3341 1997 
z
" transform="scale(0.015625)"/>
        <path id="DejaVuSans-6e" d="M 3513 2113 
L 3513 0 
L 2938 0 
L 2938 2094 
Q 2938 2591 2744 2837 
Q 2550 3084 2163 3084 
Q 1697 3084 1428 2787 
Q 1159 2491 1159 1978 
L 1159 0 
L 581 0 
L 581 3500 
L 1159 3500 
L 1159 2956 
Q 1366 3272 1645 3428 
Q 1925 3584 2291 3584 
Q 2894 3584 3203 3211 
Q 3513 2838 3513 2113 
z
" transform="scale(0.015625)"/>
        <path id="DejaVuSans-6b" d="M 581 4863 
L 1159 4863 
L 1159 1991 
L 2875 3500 
L 3609 3500 
L 1753 1863 
L 3688 0 
L 2938 0 
L 1159 1709 
L 1159 0 
L 581 0 
L 581 4863 
z
" transform="scale(0.015625)"/>
       </defs>
       <use xlink:href="#DejaVuSans-52"/>
       <use xlink:href="#DejaVuSans-61" transform="translate(67.232422 0)"/>
       <use xlink:href="#DejaVuSans-6e" transform="translate(128.511719 0)"/>
       <use xlink:href="#DejaVuSans-6b" transform="translate(191.890625 0)"/>
       <use xlink:href="#DejaVuSans-20" transform="translate(249.800781 0)"/>
       <use xlink:href="#DejaVuSans-30" transform="translate(281.587891 0)"/>
      </g>
     </g>
    </g>
    <g id="ytick_2">
     <g id="line2d_24">
      <g>
       <use xlink:href="#mb936a9fe2b" x="55.198438" y="81" style="stroke: #000000; stroke-width: 0.8"/>
      </g>
     </g>
     <g id="text_14">
      <!-- Rank 1 -->
      <g transform="translate(13.678125 84.799219) scale(0.1 -0.1)">
       <use xlink:href="#DejaVuSans-52"/>
       <use xlink:href="#DejaVuSans-61" transform="translate(67.232422 0)"/>
       <use xlink:href="#DejaVuSans-6e" transform="translate(128.511719 0)"/>
       <use xlink:href="#DejaVuSans-6b" transform="translate(191.890625 0)"/>
       <use xlink:href="#DejaVuSans-20" transform="translate(249.800781 0)"/>
       <use xlink:href="#DejaVuSans-31" transform="translate(281.587891 0)"/>
      </g>
     </g>
    </g>
    <g id="ytick_3">
     <g id="line2d_25">
      <g>
       <use xlink:href="#mb936a9fe2b" x="55.198438" y="135" style="stroke: #000000; stroke-width: 0.8"/>
      </g>
     </g>
     <g id="text_15">
      <!-- Rank 2 -->
      <g transform="translate(13.678125 138.799219) scale(0.1 -0.1)">
       <use xlink:href="#DejaVuSans-52"/>
       <use xlink:href="#DejaVuSans-61" transform="translate(67.232422 0)"/>
       <use xlink:href="#DejaVuSans-6e" transform="translate(128.511719 0)"/>
       <use xlink:href="#DejaVuSans-6b" transform="translate(191.890625 0)"/>
       <use xlink:href="#DejaVuSans-20" transform="translate(249.800781 0)"/>
       <use xlink:href="#DejaVuSans-32" transform="translate(281.587891 0)"/>
      </g>
     </g>
    </g>
    <g id="ytick_4">
     <g id="line2d_26">
      <g>
       <use xlink:href="#mb936a9fe2b" x="55.198438" y="189" style="stroke: #000000; stroke-width: 0.8"/>
      </g>
     </g>
     <g id="text_16">
      <!-- Rank 3 -->
      <g transform="translate(13.678125 192.799219) scale(0.1 -0.1)">
       <use xlink:href="#DejaVuSans-52"/>
       <use xlink:href="#DejaVuSans-61" transform="translate(67.232422 0)"/>
       <use xlink:href="#DejaVuSans-6e" transform="translate(128.511719 0)"/>
       <use xlink:href="#DejaVuSans-6b" transform="translate(191.890625 0)"/>
       <use xlink:href="#DejaVuSans-20" transform="translate(249.800781 0)"/>
       <use xlink:href="#DejaVuSans-33" transform="translate(281.587891 0)"/>
      </g>
     </g>
    </g>
    <g id="text_17">
     <!-- Rank -->
     <g transform="translate(7.598438 120.489844) rotate(-90) scale(0.1 -0.1)">
      <use xlink:href="#DejaVuSans-52"/>
      <use xlink:href="#DejaVuSans-61" transform="translate(67.232422 0)"/>
      <use xlink:href="#DejaVuSans-6e" transform="translate(128.511719 0)"/>
      <use xlink:href="#DejaVuSans-6b" transform="translate(191.890625 0)"/>
     </g>
    </g>
   </g>
   <g id="patch_67">
    <path d="M 55.198438 216 
L 55.198438 0 
" style="fill: none; stroke: #000000; stroke-width: 0.8; stroke-linejoin: miter; stroke-linecap: square"/>
   </g>
   <g id="patch_68">
    <path d="M 2287.198438 216 
L 2287.198438 0 
" style="fill: none"/>
   </g>
   <g id="patch_69">
    <path d="M 55.198438 216 
L 2287.198438 216 
" style="fill: none; stroke: #000000; stroke-width: 0.8; stroke-linejoin: miter; stroke-linecap: square"/>
   </g>
   <g id="patch_70">
    <path d="M 55.198438 0 
L 2287.198438 0 
" style="fill: none"/>
   </g>
   <g id="text_18">
    <!-- 1 -->
    <g style="fill: #ffffff" transform="translate(70.184773 31.139063) scale(0.15 -0.15)">
     <use xlink:href="#DejaVuSans-31"/>
    </g>
   </g>
   <g id="text_19">
    <!-- 2 -->
    <g style="fill: #ffffff" transform="translate(110.090936 31.139063) scale(0.15 -0.15)">
     <use xlink:href="#DejaVuSans-32"/>
    </g>
   </g>
   <g id="text_20">
    <!-- 3 -->
    <g style="fill: #ffffff" transform="translate(156.554928 31.139063) scale(0.15 -0.15)">
     <use xlink:href="#DejaVuSans-33"/>
    </g>
   </g>
   <g id="text_21">
    <!-- 4 -->
    <g style="fill: #ffffff" transform="translate(210.254559 31.139063) scale(0.15 -0.15)">
     <use xlink:href="#DejaVuSans-34"/>
    </g>
   </g>
   <g id="text_22">
    <!-- 5 -->
    <g style="fill: #ffffff" transform="translate(265.343704 31.139063) scale(0.15 -0.15)">
     <use xlink:href="#DejaVuSans-35"/>
    </g>
   </g>
   <g id="text_23">
    <!-- 6 -->
    <g style="fill: #ffffff" transform="translate(321.229277 31.139063) scale(0.15 -0.15)">
     <use xlink:href="#DejaVuSans-36"/>
    </g>
   </g>
   <g id="text_24">
    <!-- 7 -->
    <g style="fill: #ffffff" transform="translate(377.775718 31.139063) scale(0.15 -0.15)">
     <use xlink:href="#DejaVuSans-37"/>
    </g>
   </g>
   <g id="text_25">
    <!-- 8 -->
    <g style="fill: #ffffff" transform="translate(434.542446 31.139063) scale(0.15 -0.15)">
     <use xlink:href="#DejaVuSans-38"/>
    </g>
   </g>
   <g id="text_26">
    <!-- 1 -->
    <g style="fill: #ffffff" transform="translate(1164.81676 31.139063) scale(0.15 -0.15)">
     <use xlink:href="#DejaVuSans-31"/>
    </g>
   </g>
   <g id="text_27">
    <!-- 2 -->
    <g style="fill: #ffffff" transform="translate(1324.204178 31.139063) scale(0.15 -0.15)">
     <use xlink:href="#DejaVuSans-32"/>
    </g>
   </g>
   <g id="text_28">
    <!-- 3 -->
    <g style="fill: #ffffff" transform="translate(1478.677462 31.139063) scale(0.15 -0.15)">
     <use xlink:href="#DejaVuSans-33"/>
    </g>
   </g>
   <g id="text_29">
    <!-- 4 -->
    <g style="fill: #ffffff" transform="translate(1632.337372 31.139063) scale(0.15 -0.15)">
     <use xlink:href="#DejaVuSans-34"/>
    </g>
   </g>
   <g id="text_30">
    <!-- 5 -->
    <g style="fill: #ffffff" transform="translate(1785.150017 31.139063) scale(0.15 -0.15)">
     <use xlink:href="#DejaVuSans-35"/>
    </g>
   </g>
   <g id="text_31">
    <!-- 6 -->
    <g style="fill: #ffffff" transform="translate(1938.369349 31.139063) scale(0.15 -0.15)">
     <use xlink:href="#DejaVuSans-36"/>
    </g>
   </g>
   <g id="text_32">
    <!-- 7 -->
    <g style="fill: #ffffff" transform="translate(2091.690353 31.139063) scale(0.15 -0.15)">
     <use xlink:href="#DejaVuSans-37"/>
    </g>
   </g>
   <g id="text_33">
    <!-- 8 -->
    <g style="fill: #ffffff" transform="translate(2244.875795 31.139063) scale(0.15 -0.15)">
     <use xlink:href="#DejaVuSans-38"/>
    </g>
   </g>
   <g id="text_34">
    <!-- 1 -->
    <g style="fill: #ffffff" transform="translate(113.191925 85.139063) scale(0.15 -0.15)">
     <use xlink:href="#DejaVuSans-31"/>
    </g>
   </g>
   <g id="text_35">
    <!-- 2 -->
    <g style="fill: #ffffff" transform="translate(160.113439 85.139063) scale(0.15 -0.15)">
     <use xlink:href="#DejaVuSans-32"/>
    </g>
   </g>
   <g id="text_36">
    <!-- 3 -->
    <g style="fill: #ffffff" transform="translate(210.729027 85.139063) scale(0.15 -0.15)">
     <use xlink:href="#DejaVuSans-33"/>
    </g>
   </g>
   <g id="text_37">
    <!-- 4 -->
    <g style="fill: #ffffff" transform="translate(269.037777 85.139063) scale(0.15 -0.15)">
     <use xlink:href="#DejaVuSans-34"/>
    </g>
   </g>
   <g id="text_38">
    <!-- 5 -->
    <g style="fill: #ffffff" transform="translate(333.107927 85.139063) scale(0.15 -0.15)">
     <use xlink:href="#DejaVuSans-35"/>
    </g>
   </g>
   <g id="text_39">
    <!-- 6 -->
    <g style="fill: #ffffff" transform="translate(397.398366 85.139063) scale(0.15 -0.15)">
     <use xlink:href="#DejaVuSans-36"/>
    </g>
   </g>
   <g id="text_40">
    <!-- 7 -->
    <g style="fill: #ffffff" transform="translate(457.943895 85.139063) scale(0.15 -0.15)">
     <use xlink:href="#DejaVuSans-37"/>
    </g>
   </g>
   <g id="text_41">
    <!-- 8 -->
    <g style="fill: #ffffff" transform="translate(514.456445 85.139063) scale(0.15 -0.15)">
     <use xlink:href="#DejaVuSans-38"/>
    </g>
   </g>
   <g id="text_42">
    <!-- 1 -->
    <g style="fill: #ffffff" transform="translate(1088.25793 85.139063) scale(0.15 -0.15)">
     <use xlink:href="#DejaVuSans-31"/>
    </g>
   </g>
   <g id="text_43">
    <!-- 2 -->
    <g style="fill: #ffffff" transform="translate(1245.679694 85.139063) scale(0.15 -0.15)">
     <use xlink:href="#DejaVuSans-32"/>
    </g>
   </g>
   <g id="text_44">
    <!-- 3 -->
    <g style="fill: #ffffff" transform="translate(1399.847963 85.139063) scale(0.15 -0.15)">
     <use xlink:href="#DejaVuSans-33"/>
    </g>
   </g>
   <g id="text_45">
    <!-- 4 -->
    <g style="fill: #ffffff" transform="translate(1553.202857 85.139063) scale(0.15 -0.15)">
     <use xlink:href="#DejaVuSans-34"/>
    </g>
   </g>
   <g id="text_46">
    <!-- 5 -->
    <g style="fill: #ffffff" transform="translate(1706.320518 85.139063) scale(0.15 -0.15)">
     <use xlink:href="#DejaVuSans-35"/>
    </g>
   </g>
   <g id="text_47">
    <!-- 6 -->
    <g style="fill: #ffffff" transform="translate(1859.438178 85.139063) scale(0.15 -0.15)">
     <use xlink:href="#DejaVuSans-36"/>
    </g>
   </g>
   <g id="text_48">
    <!-- 7 -->
    <g style="fill: #ffffff" transform="translate(2012.691401 85.139063) scale(0.15 -0.15)">
     <use xlink:href="#DejaVuSans-37"/>
    </g>
   </g>
   <g id="text_49">
    <!-- 8 -->
    <g style="fill: #ffffff" transform="translate(2165.978514 85.139063) scale(0.15 -0.15)">
     <use xlink:href="#DejaVuSans-38"/>
    </g>
   </g>
   <g id="text_50">
    <!-- 1 -->
    <g style="fill: #ffffff" transform="translate(154.538438 139.139063) scale(0.15 -0.15)">
     <use xlink:href="#DejaVuSans-31"/>
    </g>
   </g>
   <g id="text_51">
    <!-- 2 -->
    <g style="fill: #ffffff" transform="translate(202.273326 139.139063) scale(0.15 -0.15)">
     <use xlink:href="#DejaVuSans-32"/>
    </g>
   </g>
   <g id="text_52">
    <!-- 3 -->
    <g style="fill: #ffffff" transform="translate(256.803276 139.139063) scale(0.15 -0.15)">
     <use xlink:href="#DejaVuSans-33"/>
    </g>
   </g>
   <g id="text_53">
    <!-- 4 -->
    <g style="fill: #ffffff" transform="translate(319.619475 139.139063) scale(0.15 -0.15)">
     <use xlink:href="#DejaVuSans-34"/>
    </g>
   </g>
   <g id="text_54">
    <!-- 5 -->
    <g style="fill: #ffffff" transform="translate(384.960521 139.139063) scale(0.15 -0.15)">
     <use xlink:href="#DejaVuSans-35"/>
    </g>
   </g>
   <g id="text_55">
    <!-- 6 -->
    <g style="fill: #ffffff" transform="translate(448.013954 139.139063) scale(0.15 -0.15)">
     <use xlink:href="#DejaVuSans-36"/>
    </g>
   </g>
   <g id="text_56">
    <!-- 7 -->
    <g style="fill: #ffffff" transform="translate(505.831291 139.139063) scale(0.15 -0.15)">
     <use xlink:href="#DejaVuSans-37"/>
    </g>
   </g>
   <g id="text_57">
    <!-- 8 -->
    <g style="fill: #ffffff" transform="translate(560.90349 139.139063) scale(0.15 -0.15)">
     <use xlink:href="#DejaVuSans-38"/>
    </g>
   </g>
   <g id="text_58">
    <!-- 1 -->
    <g style="fill: #ffffff" transform="translate(1017.901076 139.139063) scale(0.15 -0.15)">
     <use xlink:href="#DejaVuSans-31"/>
    </g>
   </g>
   <g id="text_59">
    <!-- 2 -->
    <g style="fill: #ffffff" transform="translate(1173.255515 139.139063) scale(0.15 -0.15)">
     <use xlink:href="#DejaVuSans-32"/>
    </g>
   </g>
   <g id="text_60">
    <!-- 3 -->
    <g style="fill: #ffffff" transform="translate(1327.084878 139.139063) scale(0.15 -0.15)">
     <use xlink:href="#DejaVuSans-33"/>
    </g>
   </g>
   <g id="text_61">
    <!-- 4 -->
    <g style="fill: #ffffff" transform="translate(1480.219484 139.139063) scale(0.15 -0.15)">
     <use xlink:href="#DejaVuSans-34"/>
    </g>
   </g>
   <g id="text_62">
    <!-- 5 -->
    <g style="fill: #ffffff" transform="translate(1633.67605 139.139063) scale(0.15 -0.15)">
     <use xlink:href="#DejaVuSans-35"/>
    </g>
   </g>
   <g id="text_63">
    <!-- 6 -->
    <g style="fill: #ffffff" transform="translate(1786.725929 139.139063) scale(0.15 -0.15)">
     <use xlink:href="#DejaVuSans-36"/>
    </g>
   </g>
   <g id="text_64">
    <!-- 7 -->
    <g style="fill: #ffffff" transform="translate(1939.894426 139.139063) scale(0.15 -0.15)">
     <use xlink:href="#DejaVuSans-37"/>
    </g>
   </g>
   <g id="text_65">
    <!-- 8 -->
    <g style="fill: #ffffff" transform="translate(2093.232375 139.139063) scale(0.15 -0.15)">
     <use xlink:href="#DejaVuSans-38"/>
    </g>
   </g>
   <g id="text_66">
    <!-- 1 -->
    <g style="fill: #ffffff" transform="translate(201.375226 193.139063) scale(0.15 -0.15)">
     <use xlink:href="#DejaVuSans-31"/>
    </g>
   </g>
   <g id="text_67">
    <!-- 2 -->
    <g style="fill: #ffffff" transform="translate(264.581166 193.139063) scale(0.15 -0.15)">
     <use xlink:href="#DejaVuSans-32"/>
    </g>
   </g>
   <g id="text_68">
    <!-- 3 -->
    <g style="fill: #ffffff" transform="translate(338.733764 193.139063) scale(0.15 -0.15)">
     <use xlink:href="#DejaVuSans-33"/>
    </g>
   </g>
   <g id="text_69">
    <!-- 4 -->
    <g style="fill: #ffffff" transform="translate(421.833477 193.139063) scale(0.15 -0.15)">
     <use xlink:href="#DejaVuSans-34"/>
    </g>
   </g>
   <g id="text_70">
    <!-- 5 -->
    <g style="fill: #ffffff" transform="translate(509.305076 193.139063) scale(0.15 -0.15)">
     <use xlink:href="#DejaVuSans-35"/>
    </g>
   </g>
   <g id="text_71">
    <!-- 6 -->
    <g style="fill: #ffffff" transform="translate(597.657829 193.139063) scale(0.15 -0.15)">
     <use xlink:href="#DejaVuSans-36"/>
    </g>
   </g>
   <g id="text_72">
    <!-- 7 -->
    <g style="fill: #ffffff" transform="translate(686.383379 193.139063) scale(0.15 -0.15)">
     <use xlink:href="#DejaVuSans-37"/>
    </g>
   </g>
   <g id="text_73">
    <!-- 8 -->
    <g style="fill: #ffffff" transform="translate(775.244492 193.139063) scale(0.15 -0.15)">
     <use xlink:href="#DejaVuSans-38"/>
    </g>
   </g>
   <g id="text_74">
    <!-- 1 -->
    <g style="fill: #ffffff" transform="translate(903.384791 193.139063) scale(0.15 -0.15)">
     <use xlink:href="#DejaVuSans-31"/>
    </g>
   </g>
   <g id="text_75">
    <!-- 2 -->
    <g style="fill: #ffffff" transform="translate(1064.568411 193.139063) scale(0.15 -0.15)">
     <use xlink:href="#DejaVuSans-32"/>
    </g>
   </g>
   <g id="text_76">
    <!-- 3 -->
    <g style="fill: #ffffff" transform="translate(1218.838351 193.139063) scale(0.15 -0.15)">
     <use xlink:href="#DejaVuSans-33"/>
    </g>
   </g>
   <g id="text_77">
    <!-- 4 -->
    <g style="fill: #ffffff" transform="translate(1372.227136 193.139063) scale(0.15 -0.15)">
     <use xlink:href="#DejaVuSans-34"/>
    </g>
   </g>
   <g id="text_78">
    <!-- 5 -->
    <g style="fill: #ffffff" transform="translate(1525.54814 193.139063) scale(0.15 -0.15)">
     <use xlink:href="#DejaVuSans-35"/>
    </g>
   </g>
   <g id="text_79">
    <!-- 6 -->
    <g style="fill: #ffffff" transform="translate(1678.801363 193.139063) scale(0.15 -0.15)">
     <use xlink:href="#DejaVuSans-36"/>
    </g>
   </g>
   <g id="text_80">
    <!-- 7 -->
    <g style="fill: #ffffff" transform="translate(1831.919024 193.139063) scale(0.15 -0.15)">
     <use xlink:href="#DejaVuSans-37"/>
    </g>
   </g>
   <g id="text_81">
    <!-- 8 -->
    <g style="fill: #ffffff" transform="translate(1985.172246 193.139063) scale(0.15 -0.15)">
     <use xlink:href="#DejaVuSans-38"/>
    </g>
   </g>
  </g>
 </g>
 <defs>
  <clipPath id="p89df631594">
   <rect x="55.198438" y="0" width="2232" height="216"/>
  </clipPath>
 </defs>
</svg>
