<?xml version="1.0" encoding="utf-8" standalone="no"?>
<!DOCTYPE svg PUBLIC "-//W3C//DTD SVG 1.1//EN"
  "http://www.w3.org/Graphics/SVG/1.1/DTD/svg11.dtd">
<svg xmlns:xlink="http://www.w3.org/1999/xlink" width="2299.923437pt" height="246.35625pt" viewBox="0 0 2299.923437 246.35625" xmlns="http://www.w3.org/2000/svg" version="1.1">
 <metadata>
  <rdf:RDF xmlns:dc="http://purl.org/dc/elements/1.1/" xmlns:cc="http://creativecommons.org/ns#" xmlns:rdf="http://www.w3.org/1999/02/22-rdf-syntax-ns#">
   <cc:Work>
    <dc:type rdf:resource="http://purl.org/dc/dcmitype/StillImage"/>
    <dc:date>2025-10-25T17:02:12.934827</dc:date>
    <dc:format>image/svg+xml</dc:format>
    <dc:creator>
     <cc:Agent>
      <dc:title>Matplotlib v3.10.7, https://matplotlib.org/</dc:title>
     </cc:Agent>
    </dc:creator>
   </cc:Work>
  </rdf:RDF>
 </metadata>
 <defs>
  <style type="text/css">*{stroke-linejoin: round; stroke-linecap: butt}</style>
 </defs>
 <g id="figure_1">
  <g id="patch_1">
   <path d="M 0 246.35625 
L 2299.923437 246.35625 
L 2299.923437 -0 
L 0 -0 
z
" style="fill: #ffffff"/>
  </g>
  <g id="axes_1">
   <g id="patch_2">
    <path d="M 55.198438 216 
L 2287.198438 216 
L 2287.198438 0 
L 55.198438 0 
z
" style="fill: #ffffff"/>
   </g>
   <g id="line2d_1">
    <path d="M 55.198438 216 
L 55.198438 0 
" clip-path="url(#p2a79efd076)" style="fill: none; stroke-dasharray: 1.85,0.8; stroke-dashoffset: 0; stroke: #808080; stroke-opacity: 0.7; stroke-width: 0.5"/>
   </g>
   <g id="line2d_2">
    <path d="M 273.197125 216 
L 273.197125 0 
" clip-path="url(#p2a79efd076)" style="fill: none; stroke-dasharray: 1.85,0.8; stroke-dashoffset: 0; stroke: #808080; stroke-opacity: 0.7; stroke-width: 0.5"/>
   </g>
   <g id="line2d_3">
    <path d="M 491.195813 216 
L 491.195813 0 
" clip-path="url(#p2a79efd076)" style="fill: none; stroke-dasharray: 1.85,0.8; stroke-dashoffset: 0; stroke: #808080; stroke-opacity: 0.7; stroke-width: 0.5"/>
   </g>
   <g id="line2d_4">
    <path d="M 709.1945 216 
L 709.1945 0 
" clip-path="url(#p2a79efd076)" style="fill: none; stroke-dasharray: 1.85,0.8; stroke-dashoffset: 0; stroke: #808080; stroke-opacity: 0.7; stroke-width: 0.5"/>
   </g>
   <g id="line2d_5">
    <path d="M 927.193188 216 
L 927.193188 0 
" clip-path="url(#p2a79efd076)" style="fill: none; stroke-dasharray: 1.85,0.8; stroke-dashoffset: 0; stroke: #808080; stroke-opacity: 0.7; stroke-width: 0.5"/>
   </g>
   <g id="line2d_6">
    <path d="M 1145.191875 216 
L 1145.191875 0 
" clip-path="url(#p2a79efd076)" style="fill: none; stroke-dasharray: 1.85,0.8; stroke-dashoffset: 0; stroke: #808080; stroke-opacity: 0.7; stroke-width: 0.5"/>
   </g>
   <g id="line2d_7">
    <path d="M 1363.190563 216 
L 1363.190563 0 
" clip-path="url(#p2a79efd076)" style="fill: none; stroke-dasharray: 1.85,0.8; stroke-dashoffset: 0; stroke: #808080; stroke-opacity: 0.7; stroke-width: 0.5"/>
   </g>
   <g id="line2d_8">
    <path d="M 1581.18925 216 
L 1581.18925 0 
" clip-path="url(#p2a79efd076)" style="fill: none; stroke-dasharray: 1.85,0.8; stroke-dashoffset: 0; stroke: #808080; stroke-opacity: 0.7; stroke-width: 0.5"/>
   </g>
   <g id="line2d_9">
    <path d="M 1799.187938 216 
L 1799.187938 0 
" clip-path="url(#p2a79efd076)" style="fill: none; stroke-dasharray: 1.85,0.8; stroke-dashoffset: 0; stroke: #808080; stroke-opacity: 0.7; stroke-width: 0.5"/>
   </g>
   <g id="line2d_10">
    <path d="M 2017.186626 216 
L 2017.186626 0 
" clip-path="url(#p2a79efd076)" style="fill: none; stroke-dasharray: 1.85,0.8; stroke-dashoffset: 0; stroke: #808080; stroke-opacity: 0.7; stroke-width: 0.5"/>
   </g>
   <g id="line2d_11">
    <path d="M 2287.198438 216 
L 2287.198438 0 
" clip-path="url(#p2a79efd076)" style="fill: none; stroke-dasharray: 1.85,0.8; stroke-dashoffset: 0; stroke: #808080; stroke-opacity: 0.7; stroke-width: 0.5"/>
   </g>
   <g id="patch_3">
    <path d="M 55.198438 0 
L 94.608513 0 
L 94.608513 54 
L 55.198438 54 
z
" clip-path="url(#p2a79efd076)" style="fill: #4285f4; stroke: #ffffff; stroke-linejoin: miter"/>
   </g>
   <g id="patch_4">
    <path d="M 94.608513 0 
L 134.870145 0 
L 134.870145 54 
L 94.608513 54 
z
" clip-path="url(#p2a79efd076)" style="fill: #4285f4; stroke: #ffffff; stroke-linejoin: miter"/>
   </g>
   <g id="patch_5">
    <path d="M 134.870145 0 
L 186.985457 0 
L 186.985457 54 
L 134.870145 54 
z
" clip-path="url(#p2a79efd076)" style="fill: #4285f4; stroke: #ffffff; stroke-linejoin: miter"/>
   </g>
   <g id="patch_6">
    <path d="M 186.985457 0 
L 241.348879 0 
L 241.348879 54 
L 186.985457 54 
z
" clip-path="url(#p2a79efd076)" style="fill: #4285f4; stroke: #ffffff; stroke-linejoin: miter"/>
   </g>
   <g id="patch_7">
    <path d="M 241.348879 0 
L 296.257299 0 
L 296.257299 54 
L 241.348879 54 
z
" clip-path="url(#p2a79efd076)" style="fill: #4285f4; stroke: #ffffff; stroke-linejoin: miter"/>
   </g>
   <g id="patch_8">
    <path d="M 296.257299 0 
L 352.221649 0 
L 352.221649 54 
L 296.257299 54 
z
" clip-path="url(#p2a79efd076)" style="fill: #4285f4; stroke: #ffffff; stroke-linejoin: miter"/>
   </g>
   <g id="patch_9">
    <path d="M 352.221649 0 
L 408.322249 0 
L 408.322249 54 
L 352.221649 54 
z
" clip-path="url(#p2a79efd076)" style="fill: #4285f4; stroke: #ffffff; stroke-linejoin: miter"/>
   </g>
   <g id="patch_10">
    <path d="M 408.322249 0 
L 464.559098 0 
L 464.559098 54 
L 408.322249 54 
z
" clip-path="url(#p2a79efd076)" style="fill: #4285f4; stroke: #ffffff; stroke-linejoin: miter"/>
   </g>
   <g id="patch_11">
    <path d="M 1135.007249 0 
L 1209.194927 0 
L 1209.194927 54 
L 1135.007249 54 
z
" clip-path="url(#p2a79efd076)" style="fill: #34a853; stroke: #ffffff; stroke-linejoin: miter"/>
   </g>
   <g id="patch_12">
    <path d="M 1293.567232 0 
L 1368.299907 0 
L 1368.299907 54 
L 1293.567232 54 
z
" clip-path="url(#p2a79efd076)" style="fill: #34a853; stroke: #ffffff; stroke-linejoin: miter"/>
   </g>
   <g id="patch_13">
    <path d="M 1448.03974 0 
L 1523.113038 0 
L 1523.113038 54 
L 1448.03974 54 
z
" clip-path="url(#p2a79efd076)" style="fill: #34a853; stroke: #ffffff; stroke-linejoin: miter"/>
   </g>
   <g id="patch_14">
    <path d="M 1600.604759 0 
L 1675.678057 0 
L 1675.678057 54 
L 1600.604759 54 
z
" clip-path="url(#p2a79efd076)" style="fill: #34a853; stroke: #ffffff; stroke-linejoin: miter"/>
   </g>
   <g id="patch_15">
    <path d="M 1754.259771 0 
L 1829.469318 0 
L 1829.469318 54 
L 1754.259771 54 
z
" clip-path="url(#p2a79efd076)" style="fill: #34a853; stroke: #ffffff; stroke-linejoin: miter"/>
   </g>
   <g id="patch_16">
    <path d="M 1906.552292 0 
L 1981.761839 0 
L 1981.761839 54 
L 1906.552292 54 
z
" clip-path="url(#p2a79efd076)" style="fill: #34a853; stroke: #ffffff; stroke-linejoin: miter"/>
   </g>
   <g id="patch_17">
    <path d="M 2059.594183 0 
L 2134.80373 0 
L 2134.80373 54 
L 2059.594183 54 
z
" clip-path="url(#p2a79efd076)" style="fill: #34a853; stroke: #ffffff; stroke-linejoin: miter"/>
   </g>
   <g id="patch_18">
    <path d="M 2211.98889 0 
L 2287.198438 0 
L 2287.198438 54 
L 2211.98889 54 
z
" clip-path="url(#p2a79efd076)" style="fill: #34a853; stroke: #ffffff; stroke-linejoin: miter"/>
   </g>
   <g id="patch_19">
    <path d="M 94.608513 54 
L 141.035421 54 
L 141.035421 108 
L 94.608513 108 
z
" clip-path="url(#p2a79efd076)" style="fill: #4285f4; stroke: #ffffff; stroke-linejoin: miter"/>
   </g>
   <g id="patch_20">
    <path d="M 141.035421 54 
L 188.654509 54 
L 188.654509 108 
L 141.035421 108 
z
" clip-path="url(#p2a79efd076)" style="fill: #4285f4; stroke: #ffffff; stroke-linejoin: miter"/>
   </g>
   <g id="patch_21">
    <path d="M 188.654509 54 
L 241.723565 54 
L 241.723565 108 
L 188.654509 108 
z
" clip-path="url(#p2a79efd076)" style="fill: #4285f4; stroke: #ffffff; stroke-linejoin: miter"/>
   </g>
   <g id="patch_22">
    <path d="M 241.723565 54 
L 303.614754 54 
L 303.614754 108 
L 241.723565 108 
z
" clip-path="url(#p2a79efd076)" style="fill: #4285f4; stroke: #ffffff; stroke-linejoin: miter"/>
   </g>
   <g id="patch_23">
    <path d="M 303.614754 54 
L 368.469364 54 
L 368.469364 108 
L 303.614754 108 
z
" clip-path="url(#p2a79efd076)" style="fill: #4285f4; stroke: #ffffff; stroke-linejoin: miter"/>
   </g>
   <g id="patch_24">
    <path d="M 368.469364 54 
L 430.701177 54 
L 430.701177 108 
L 368.469364 108 
z
" clip-path="url(#p2a79efd076)" style="fill: #4285f4; stroke: #ffffff; stroke-linejoin: miter"/>
   </g>
   <g id="patch_25">
    <path d="M 430.701177 54 
L 488.743327 54 
L 488.743327 108 
L 430.701177 108 
z
" clip-path="url(#p2a79efd076)" style="fill: #4285f4; stroke: #ffffff; stroke-linejoin: miter"/>
   </g>
   <g id="patch_26">
    <path d="M 488.743327 54 
L 543.753934 54 
L 543.753934 108 
L 488.743327 108 
z
" clip-path="url(#p2a79efd076)" style="fill: #4285f4; stroke: #ffffff; stroke-linejoin: miter"/>
   </g>
   <g id="patch_27">
    <path d="M 1055.982725 54 
L 1135.007249 54 
L 1135.007249 108 
L 1055.982725 108 
z
" clip-path="url(#p2a79efd076)" style="fill: #34a853; stroke: #ffffff; stroke-linejoin: miter"/>
   </g>
   <g id="patch_28">
    <path d="M 1211.817724 54 
L 1293.567232 54 
L 1293.567232 108 
L 1211.817724 108 
z
" clip-path="url(#p2a79efd076)" style="fill: #34a853; stroke: #ffffff; stroke-linejoin: miter"/>
   </g>
   <g id="patch_29">
    <path d="M 1365.336487 54 
L 1448.03974 54 
L 1448.03974 108 
L 1365.336487 108 
z
" clip-path="url(#p2a79efd076)" style="fill: #34a853; stroke: #ffffff; stroke-linejoin: miter"/>
   </g>
   <g id="patch_30">
    <path d="M 1518.514628 54 
L 1600.604759 54 
L 1600.604759 108 
L 1518.514628 108 
z
" clip-path="url(#p2a79efd076)" style="fill: #34a853; stroke: #ffffff; stroke-linejoin: miter"/>
   </g>
   <g id="patch_31">
    <path d="M 1671.760893 54 
L 1754.259771 54 
L 1754.259771 108 
L 1671.760893 108 
z
" clip-path="url(#p2a79efd076)" style="fill: #34a853; stroke: #ffffff; stroke-linejoin: miter"/>
   </g>
   <g id="patch_32">
    <path d="M 1824.462161 54 
L 1906.552292 54 
L 1906.552292 108 
L 1824.462161 108 
z
" clip-path="url(#p2a79efd076)" style="fill: #34a853; stroke: #ffffff; stroke-linejoin: miter"/>
   </g>
   <g id="patch_33">
    <path d="M 1977.02718 54 
L 2059.594183 54 
L 2059.594183 108 
L 1977.02718 108 
z
" clip-path="url(#p2a79efd076)" style="fill: #34a853; stroke: #ffffff; stroke-linejoin: miter"/>
   </g>
   <g id="patch_34">
    <path d="M 2129.626261 54 
L 2211.98889 54 
L 2211.98889 108 
L 2129.626261 108 
z
" clip-path="url(#p2a79efd076)" style="fill: #34a853; stroke: #ffffff; stroke-linejoin: miter"/>
   </g>
   <g id="patch_35">
    <path d="M 141.035421 108 
L 177.345827 108 
L 177.345827 162 
L 141.035421 162 
z
" clip-path="url(#p2a79efd076)" style="fill: #4285f4; stroke: #ffffff; stroke-linejoin: miter"/>
   </g>
   <g id="patch_36">
    <path d="M 188.654509 108 
L 225.816473 108 
L 225.816473 162 
L 188.654509 162 
z
" clip-path="url(#p2a79efd076)" style="fill: #4285f4; stroke: #ffffff; stroke-linejoin: miter"/>
   </g>
   <g id="patch_37">
    <path d="M 241.723565 108 
L 280.111771 108 
L 280.111771 162 
L 241.723565 162 
z
" clip-path="url(#p2a79efd076)" style="fill: #4285f4; stroke: #ffffff; stroke-linejoin: miter"/>
   </g>
   <g id="patch_38">
    <path d="M 303.614754 108 
L 342.241397 108 
L 342.241397 162 
L 303.614754 162 
z
" clip-path="url(#p2a79efd076)" style="fill: #4285f4; stroke: #ffffff; stroke-linejoin: miter"/>
   </g>
   <g id="patch_39">
    <path d="M 368.469364 108 
L 406.789446 108 
L 406.789446 162 
L 368.469364 162 
z
" clip-path="url(#p2a79efd076)" style="fill: #4285f4; stroke: #ffffff; stroke-linejoin: miter"/>
   </g>
   <g id="patch_40">
    <path d="M 430.701177 108 
L 468.680636 108 
L 468.680636 162 
L 430.701177 162 
z
" clip-path="url(#p2a79efd076)" style="fill: #4285f4; stroke: #ffffff; stroke-linejoin: miter"/>
   </g>
   <g id="patch_41">
    <path d="M 488.743327 108 
L 526.620599 108 
L 526.620599 162 
L 488.743327 162 
z
" clip-path="url(#p2a79efd076)" style="fill: #4285f4; stroke: #ffffff; stroke-linejoin: miter"/>
   </g>
   <g id="patch_42">
    <path d="M 543.753934 108 
L 581.69933 108 
L 581.69933 162 
L 543.753934 162 
z
" clip-path="url(#p2a79efd076)" style="fill: #4285f4; stroke: #ffffff; stroke-linejoin: miter"/>
   </g>
   <g id="patch_43">
    <path d="M 994.193722 108 
L 1055.982725 108 
L 1055.982725 162 
L 994.193722 162 
z
" clip-path="url(#p2a79efd076)" style="fill: #34a853; stroke: #ffffff; stroke-linejoin: miter"/>
   </g>
   <g id="patch_44">
    <path d="M 1149.245288 108 
L 1211.817724 108 
L 1211.817724 162 
L 1149.245288 162 
z
" clip-path="url(#p2a79efd076)" style="fill: #34a853; stroke: #ffffff; stroke-linejoin: miter"/>
   </g>
   <g id="patch_45">
    <path d="M 1302.389366 108 
L 1365.336487 108 
L 1365.336487 162 
L 1302.389366 162 
z
" clip-path="url(#p2a79efd076)" style="fill: #34a853; stroke: #ffffff; stroke-linejoin: miter"/>
   </g>
   <g id="patch_46">
    <path d="M 1455.669694 108 
L 1518.514628 108 
L 1518.514628 162 
L 1455.669694 162 
z
" clip-path="url(#p2a79efd076)" style="fill: #34a853; stroke: #ffffff; stroke-linejoin: miter"/>
   </g>
   <g id="patch_47">
    <path d="M 1608.950021 108 
L 1671.760893 108 
L 1671.760893 162 
L 1608.950021 162 
z
" clip-path="url(#p2a79efd076)" style="fill: #34a853; stroke: #ffffff; stroke-linejoin: miter"/>
   </g>
   <g id="patch_48">
    <path d="M 1761.685351 108 
L 1824.462161 108 
L 1824.462161 162 
L 1761.685351 162 
z
" clip-path="url(#p2a79efd076)" style="fill: #34a853; stroke: #ffffff; stroke-linejoin: miter"/>
   </g>
   <g id="patch_49">
    <path d="M 1914.284433 108 
L 1977.02718 108 
L 1977.02718 162 
L 1914.284433 162 
z
" clip-path="url(#p2a79efd076)" style="fill: #34a853; stroke: #ffffff; stroke-linejoin: miter"/>
   </g>
   <g id="patch_50">
    <path d="M 2066.747265 108 
L 2129.626261 108 
L 2129.626261 162 
L 2066.747265 162 
z
" clip-path="url(#p2a79efd076)" style="fill: #34a853; stroke: #ffffff; stroke-linejoin: miter"/>
   </g>
   <g id="patch_51">
    <path d="M 177.345827 162 
L 235.081417 162 
L 235.081417 216 
L 177.345827 216 
z
" clip-path="url(#p2a79efd076)" style="fill: #4285f4; stroke: #ffffff; stroke-linejoin: miter"/>
   </g>
   <g id="patch_52">
    <path d="M 235.081417 162 
L 305.522243 162 
L 305.522243 216 
L 235.081417 216 
z
" clip-path="url(#p2a79efd076)" style="fill: #4285f4; stroke: #ffffff; stroke-linejoin: miter"/>
   </g>
   <g id="patch_53">
    <path d="M 305.522243 162 
L 385.977384 162 
L 385.977384 216 
L 305.522243 216 
z
" clip-path="url(#p2a79efd076)" style="fill: #4285f4; stroke: #ffffff; stroke-linejoin: miter"/>
   </g>
   <g id="patch_54">
    <path d="M 385.977384 162 
L 472.427488 162 
L 472.427488 216 
L 385.977384 216 
z
" clip-path="url(#p2a79efd076)" style="fill: #4285f4; stroke: #ffffff; stroke-linejoin: miter"/>
   </g>
   <g id="patch_55">
    <path d="M 472.427488 162 
L 560.103835 162 
L 560.103835 216 
L 472.427488 216 
z
" clip-path="url(#p2a79efd076)" style="fill: #4285f4; stroke: #ffffff; stroke-linejoin: miter"/>
   </g>
   <g id="patch_56">
    <path d="M 560.103835 162 
L 648.665802 162 
L 648.665802 216 
L 560.103835 216 
z
" clip-path="url(#p2a79efd076)" style="fill: #4285f4; stroke: #ffffff; stroke-linejoin: miter"/>
   </g>
   <g id="patch_57">
    <path d="M 648.665802 162 
L 737.500267 162 
L 737.500267 216 
L 648.665802 216 
z
" clip-path="url(#p2a79efd076)" style="fill: #4285f4; stroke: #ffffff; stroke-linejoin: miter"/>
   </g>
   <g id="patch_58">
    <path d="M 737.500267 162 
L 826.470982 162 
L 826.470982 216 
L 737.500267 216 
z
" clip-path="url(#p2a79efd076)" style="fill: #4285f4; stroke: #ffffff; stroke-linejoin: miter"/>
   </g>
   <g id="patch_59">
    <path d="M 826.470982 162 
L 994.193722 162 
L 994.193722 216 
L 826.470982 216 
z
" clip-path="url(#p2a79efd076)" style="fill: #34a853; stroke: #ffffff; stroke-linejoin: miter"/>
   </g>
   <g id="patch_60">
    <path d="M 994.193722 162 
L 1149.245288 162 
L 1149.245288 216 
L 994.193722 216 
z
" clip-path="url(#p2a79efd076)" style="fill: #34a853; stroke: #ffffff; stroke-linejoin: miter"/>
   </g>
   <g id="patch_61">
    <path d="M 1149.245288 162 
L 1302.389366 162 
L 1302.389366 216 
L 1149.245288 216 
z
" clip-path="url(#p2a79efd076)" style="fill: #34a853; stroke: #ffffff; stroke-linejoin: miter"/>
   </g>
   <g id="patch_62">
    <path d="M 1302.389366 162 
L 1455.669694 162 
L 1455.669694 216 
L 1302.389366 216 
z
" clip-path="url(#p2a79efd076)" style="fill: #34a853; stroke: #ffffff; stroke-linejoin: miter"/>
   </g>
   <g id="patch_63">
    <path d="M 1455.669694 162 
L 1608.950021 162 
L 1608.950021 216 
L 1455.669694 216 
z
" clip-path="url(#p2a79efd076)" style="fill: #34a853; stroke: #ffffff; stroke-linejoin: miter"/>
   </g>
   <g id="patch_64">
    <path d="M 1608.950021 162 
L 1761.685351 162 
L 1761.685351 216 
L 1608.950021 216 
z
" clip-path="url(#p2a79efd076)" style="fill: #34a853; stroke: #ffffff; stroke-linejoin: miter"/>
   </g>
   <g id="patch_65">
    <path d="M 1761.685351 162 
L 1914.284433 162 
L 1914.284433 216 
L 1761.685351 216 
z
" clip-path="url(#p2a79efd076)" style="fill: #34a853; stroke: #ffffff; stroke-linejoin: miter"/>
   </g>
   <g id="patch_66">
    <path d="M 1914.284433 162 
L 2066.747265 162 
L 2066.747265 216 
L 1914.284433 216 
z
" clip-path="url(#p2a79efd076)" style="fill: #34a853; stroke: #ffffff; stroke-linejoin: miter"/>
   </g>
   <g id="matplotlib.axis_1">
    <g id="xtick_1">
     <g id="line2d_12">
      <defs>
       <path id="mb67054d2ca" d="M 0 0 
L 0 3.5 
" style="stroke: #000000; stroke-width: 0.8"/>
      </defs>
      <g>
       <use xlink:href="#mb67054d2ca" x="55.198438" y="216" style="stroke: #000000; stroke-width: 0.8"/>
      </g>
     </g>
     <g id="text_1">
      <!-- 0 -->
      <g transform="translate(52.017188 230.598438) scale(0.1 -0.1)">
       <defs>
        <path id="DejaVuSans-30" d="M 2034 4250 
Q 1547 4250 1301 3770 
Q 1056 3291 1056 2328 
Q 1056 1369 1301 889 
Q 1547 409 2034 409 
Q 2525 409 2770 889 
Q 3016 1369 3016 2328 
Q 3016 3291 2770 3770 
Q 2525 4250 2034 4250 
z
M 2034 4750 
Q 2819 4750 3233 4129 
Q 3647 3509 3647 2328 
Q 3647 1150 3233 529 
Q 2819 -91 2034 -91 
Q 1250 -91 836 529 
Q 422 1150 422 2328 
Q 422 3509 836 4129 
Q 1250 4750 2034 4750 
z
" transform="scale(0.015625)"/>
       </defs>
       <use xlink:href="#DejaVuSans-30"/>
      </g>
     </g>
    </g>
    <g id="xtick_2">
     <g id="line2d_13">
      <g>
       <use xlink:href="#mb67054d2ca" x="273.197125" y="216" style="stroke: #000000; stroke-width: 0.8"/>
      </g>
     </g>
     <g id="text_2">
      <!-- 100 -->
      <g transform="translate(263.653375 230.598438) scale(0.1 -0.1)">
       <defs>
        <path id="DejaVuSans-31" d="M 794 531 
L 1825 531 
L 1825 4091 
L 703 3866 
L 703 4441 
L 1819 4666 
L 2450 4666 
L 2450 531 
L 3481 531 
L 3481 0 
L 794 0 
L 794 531 
z
" transform="scale(0.015625)"/>
       </defs>
       <use xlink:href="#DejaVuSans-31"/>
       <use xlink:href="#DejaVuSans-30" transform="translate(63.623047 0)"/>
       <use xlink:href="#DejaVuSans-30" transform="translate(127.246094 0)"/>
      </g>
     </g>
    </g>
    <g id="xtick_3">
     <g id="line2d_14">
      <g>
       <use xlink:href="#mb67054d2ca" x="491.195813" y="216" style="stroke: #000000; stroke-width: 0.8"/>
      </g>
     </g>
     <g id="text_3">
      <!-- 200 -->
      <g transform="translate(481.652063 230.598438) scale(0.1 -0.1)">
       <defs>
        <path id="DejaVuSans-32" d="M 1228 531 
L 3431 531 
L 3431 0 
L 469 0 
L 469 531 
Q 828 903 1448 1529 
Q 2069 2156 2228 2338 
Q 2531 2678 2651 2914 
Q 2772 3150 2772 3378 
Q 2772 3750 2511 3984 
Q 2250 4219 1831 4219 
Q 1534 4219 1204 4116 
Q 875 4013 500 3803 
L 500 4441 
Q 881 4594 1212 4672 
Q 1544 4750 1819 4750 
Q 2544 4750 2975 4387 
Q 3406 4025 3406 3419 
Q 3406 3131 3298 2873 
Q 3191 2616 2906 2266 
Q 2828 2175 2409 1742 
Q 1991 1309 1228 531 
z
" transform="scale(0.015625)"/>
       </defs>
       <use xlink:href="#DejaVuSans-32"/>
       <use xlink:href="#DejaVuSans-30" transform="translate(63.623047 0)"/>
       <use xlink:href="#DejaVuSans-30" transform="translate(127.246094 0)"/>
      </g>
     </g>
    </g>
    <g id="xtick_4">
     <g id="line2d_15">
      <g>
       <use xlink:href="#mb67054d2ca" x="709.1945" y="216" style="stroke: #000000; stroke-width: 0.8"/>
      </g>
     </g>
     <g id="text_4">
      <!-- 300 -->
      <g transform="translate(699.65075 230.598438) scale(0.1 -0.1)">
       <defs>
        <path id="DejaVuSans-33" d="M 2597 2516 
Q 3050 2419 3304 2112 
Q 3559 1806 3559 1356 
Q 3559 666 3084 287 
Q 2609 -91 1734 -91 
Q 1441 -91 1130 -33 
Q 819 25 488 141 
L 488 750 
Q 750 597 1062 519 
Q 1375 441 1716 441 
Q 2309 441 2620 675 
Q 2931 909 2931 1356 
Q 2931 1769 2642 2001 
Q 2353 2234 1838 2234 
L 1294 2234 
L 1294 2753 
L 1863 2753 
Q 2328 2753 2575 2939 
Q 2822 3125 2822 3475 
Q 2822 3834 2567 4026 
Q 2313 4219 1838 4219 
Q 1578 4219 1281 4162 
Q 984 4106 628 3988 
L 628 4550 
Q 988 4650 1302 4700 
Q 1616 4750 1894 4750 
Q 2613 4750 3031 4423 
Q 3450 4097 3450 3541 
Q 3450 3153 3228 2886 
Q 3006 2619 2597 2516 
z
" transform="scale(0.015625)"/>
       </defs>
       <use xlink:href="#DejaVuSans-33"/>
       <use xlink:href="#DejaVuSans-30" transform="translate(63.623047 0)"/>
       <use xlink:href="#DejaVuSans-30" transform="translate(127.246094 0)"/>
      </g>
     </g>
    </g>
    <g id="xtick_5">
     <g id="line2d_16">
      <g>
       <use xlink:href="#mb67054d2ca" x="927.193188" y="216" style="stroke: #000000; stroke-width: 0.8"/>
      </g>
     </g>
     <g id="text_5">
      <!-- 400 -->
      <g transform="translate(917.649438 230.598438) scale(0.1 -0.1)">
       <defs>
        <path id="DejaVuSans-34" d="M 2419 4116 
L 825 1625 
L 2419 1625 
L 2419 4116 
z
M 2253 4666 
L 3047 4666 
L 3047 1625 
L 3713 1625 
L 3713 1100 
L 3047 1100 
L 3047 0 
L 2419 0 
L 2419 1100 
L 313 1100 
L 313 1709 
L 2253 4666 
z
" transform="scale(0.015625)"/>
       </defs>
       <use xlink:href="#DejaVuSans-34"/>
       <use xlink:href="#DejaVuSans-30" transform="translate(63.623047 0)"/>
       <use xlink:href="#DejaVuSans-30" transform="translate(127.246094 0)"/>
      </g>
     </g>
    </g>
    <g id="xtick_6">
     <g id="line2d_17">
      <g>
       <use xlink:href="#mb67054d2ca" x="1145.191875" y="216" style="stroke: #000000; stroke-width: 0.8"/>
      </g>
     </g>
     <g id="text_6">
      <!-- 500 -->
      <g transform="translate(1135.648125 230.598438) scale(0.1 -0.1)">
       <defs>
        <path id="DejaVuSans-35" d="M 691 4666 
L 3169 4666 
L 3169 4134 
L 1269 4134 
L 1269 2991 
Q 1406 3038 1543 3061 
Q 1681 3084 1819 3084 
Q 2600 3084 3056 2656 
Q 3513 2228 3513 1497 
Q 3513 744 3044 326 
Q 2575 -91 1722 -91 
Q 1428 -91 1123 -41 
Q 819 9 494 109 
L 494 744 
Q 775 591 1075 516 
Q 1375 441 1709 441 
Q 2250 441 2565 725 
Q 2881 1009 2881 1497 
Q 2881 1984 2565 2268 
Q 2250 2553 1709 2553 
Q 1456 2553 1204 2497 
Q 953 2441 691 2322 
L 691 4666 
z
" transform="scale(0.015625)"/>
       </defs>
       <use xlink:href="#DejaVuSans-35"/>
       <use xlink:href="#DejaVuSans-30" transform="translate(63.623047 0)"/>
       <use xlink:href="#DejaVuSans-30" transform="translate(127.246094 0)"/>
      </g>
     </g>
    </g>
    <g id="xtick_7">
     <g id="line2d_18">
      <g>
       <use xlink:href="#mb67054d2ca" x="1363.190563" y="216" style="stroke: #000000; stroke-width: 0.8"/>
      </g>
     </g>
     <g id="text_7">
      <!-- 600 -->
      <g transform="translate(1353.646813 230.598438) scale(0.1 -0.1)">
       <defs>
        <path id="DejaVuSans-36" d="M 2113 2584 
Q 1688 2584 1439 2293 
Q 1191 2003 1191 1497 
Q 1191 994 1439 701 
Q 1688 409 2113 409 
Q 2538 409 2786 701 
Q 3034 994 3034 1497 
Q 3034 2003 2786 2293 
Q 2538 2584 2113 2584 
z
M 3366 4563 
L 3366 3988 
Q 3128 4100 2886 4159 
Q 2644 4219 2406 4219 
Q 1781 4219 1451 3797 
Q 1122 3375 1075 2522 
Q 1259 2794 1537 2939 
Q 1816 3084 2150 3084 
Q 2853 3084 3261 2657 
Q 3669 2231 3669 1497 
Q 3669 778 3244 343 
Q 2819 -91 2113 -91 
Q 1303 -91 875 529 
Q 447 1150 447 2328 
Q 447 3434 972 4092 
Q 1497 4750 2381 4750 
Q 2619 4750 2861 4703 
Q 3103 4656 3366 4563 
z
" transform="scale(0.015625)"/>
       </defs>
       <use xlink:href="#DejaVuSans-36"/>
       <use xlink:href="#DejaVuSans-30" transform="translate(63.623047 0)"/>
       <use xlink:href="#DejaVuSans-30" transform="translate(127.246094 0)"/>
      </g>
     </g>
    </g>
    <g id="xtick_8">
     <g id="line2d_19">
      <g>
       <use xlink:href="#mb67054d2ca" x="1581.18925" y="216" style="stroke: #000000; stroke-width: 0.8"/>
      </g>
     </g>
     <g id="text_8">
      <!-- 700 -->
      <g transform="translate(1571.6455 230.598438) scale(0.1 -0.1)">
       <defs>
        <path id="DejaVuSans-37" d="M 525 4666 
L 3525 4666 
L 3525 4397 
L 1831 0 
L 1172 0 
L 2766 4134 
L 525 4134 
L 525 4666 
z
" transform="scale(0.015625)"/>
       </defs>
       <use xlink:href="#DejaVuSans-37"/>
       <use xlink:href="#DejaVuSans-30" transform="translate(63.623047 0)"/>
       <use xlink:href="#DejaVuSans-30" transform="translate(127.246094 0)"/>
      </g>
     </g>
    </g>
    <g id="xtick_9">
     <g id="line2d_20">
      <g>
       <use xlink:href="#mb67054d2ca" x="1799.187938" y="216" style="stroke: #000000; stroke-width: 0.8"/>
      </g>
     </g>
     <g id="text_9">
      <!-- 800 -->
      <g transform="translate(1789.644188 230.598438) scale(0.1 -0.1)">
       <defs>
        <path id="DejaVuSans-38" d="M 2034 2216 
Q 1584 2216 1326 1975 
Q 1069 1734 1069 1313 
Q 1069 891 1326 650 
Q 1584 409 2034 409 
Q 2484 409 2743 651 
Q 3003 894 3003 1313 
Q 3003 1734 2745 1975 
Q 2488 2216 2034 2216 
z
M 1403 2484 
Q 997 2584 770 2862 
Q 544 3141 544 3541 
Q 544 4100 942 4425 
Q 1341 4750 2034 4750 
Q 2731 4750 3128 4425 
Q 3525 4100 3525 3541 
Q 3525 3141 3298 2862 
Q 3072 2584 2669 2484 
Q 3125 2378 3379 2068 
Q 3634 1759 3634 1313 
Q 3634 634 3220 271 
Q 2806 -91 2034 -91 
Q 1263 -91 848 271 
Q 434 634 434 1313 
Q 434 1759 690 2068 
Q 947 2378 1403 2484 
z
M 1172 3481 
Q 1172 3119 1398 2916 
Q 1625 2713 2034 2713 
Q 2441 2713 2670 2916 
Q 2900 3119 2900 3481 
Q 2900 3844 2670 4047 
Q 2441 4250 2034 4250 
Q 1625 4250 1398 4047 
Q 1172 3844 1172 3481 
z
" transform="scale(0.015625)"/>
       </defs>
       <use xlink:href="#DejaVuSans-38"/>
       <use xlink:href="#DejaVuSans-30" transform="translate(63.623047 0)"/>
       <use xlink:href="#DejaVuSans-30" transform="translate(127.246094 0)"/>
      </g>
     </g>
    </g>
    <g id="xtick_10">
     <g id="line2d_21">
      <g>
       <use xlink:href="#mb67054d2ca" x="2017.186626" y="216" style="stroke: #000000; stroke-width: 0.8"/>
      </g>
     </g>
     <g id="text_10">
      <!-- 900 -->
      <g transform="translate(2007.642876 230.598438) scale(0.1 -0.1)">
       <defs>
        <path id="DejaVuSans-39" d="M 703 97 
L 703 672 
Q 941 559 1184 500 
Q 1428 441 1663 441 
Q 2288 441 2617 861 
Q 2947 1281 2994 2138 
Q 2813 1869 2534 1725 
Q 2256 1581 1919 1581 
Q 1219 1581 811 2004 
Q 403 2428 403 3163 
Q 403 3881 828 4315 
Q 1253 4750 1959 4750 
Q 2769 4750 3195 4129 
Q 3622 3509 3622 2328 
Q 3622 1225 3098 567 
Q 2575 -91 1691 -91 
Q 1453 -91 1209 -44 
Q 966 3 703 97 
z
M 1959 2075 
Q 2384 2075 2632 2365 
Q 2881 2656 2881 3163 
Q 2881 3666 2632 3958 
Q 2384 4250 1959 4250 
Q 1534 4250 1286 3958 
Q 1038 3666 1038 3163 
Q 1038 2656 1286 2365 
Q 1534 2075 1959 2075 
z
" transform="scale(0.015625)"/>
       </defs>
       <use xlink:href="#DejaVuSans-39"/>
       <use xlink:href="#DejaVuSans-30" transform="translate(63.623047 0)"/>
       <use xlink:href="#DejaVuSans-30" transform="translate(127.246094 0)"/>
      </g>
     </g>
    </g>
    <g id="xtick_11">
     <g id="line2d_22">
      <g>
       <use xlink:href="#mb67054d2ca" x="2287.198438" y="216" style="stroke: #000000; stroke-width: 0.8"/>
      </g>
     </g>
     <g id="text_11">
      <!-- 1024 -->
      <g transform="translate(2274.473438 230.598438) scale(0.1 -0.1)">
       <use xlink:href="#DejaVuSans-31"/>
       <use xlink:href="#DejaVuSans-30" transform="translate(63.623047 0)"/>
       <use xlink:href="#DejaVuSans-32" transform="translate(127.246094 0)"/>
       <use xlink:href="#DejaVuSans-34" transform="translate(190.869141 0)"/>
      </g>
     </g>
    </g>
    <g id="text_12">
     <!-- Time (ms) -->
     <g transform="translate(1145.999219 244.276563) scale(0.1 -0.1)">
      <defs>
       <path id="DejaVuSans-54" d="M -19 4666 
L 3928 4666 
L 3928 4134 
L 2272 4134 
L 2272 0 
L 1638 0 
L 1638 4134 
L -19 4134 
L -19 4666 
z
" transform="scale(0.015625)"/>
       <path id="DejaVuSans-69" d="M 603 3500 
L 1178 3500 
L 1178 0 
L 603 0 
L 603 3500 
z
M 603 4863 
L 1178 4863 
L 1178 4134 
L 603 4134 
L 603 4863 
z
" transform="scale(0.015625)"/>
       <path id="DejaVuSans-6d" d="M 3328 2828 
Q 3544 3216 3844 3400 
Q 4144 3584 4550 3584 
Q 5097 3584 5394 3201 
Q 5691 2819 5691 2113 
L 5691 0 
L 5113 0 
L 5113 2094 
Q 5113 2597 4934 2840 
Q 4756 3084 4391 3084 
Q 3944 3084 3684 2787 
Q 3425 2491 3425 1978 
L 3425 0 
L 2847 0 
L 2847 2094 
Q 2847 2600 2669 2842 
Q 2491 3084 2119 3084 
Q 1678 3084 1418 2786 
Q 1159 2488 1159 1978 
L 1159 0 
L 581 0 
L 581 3500 
L 1159 3500 
L 1159 2956 
Q 1356 3278 1631 3431 
Q 1906 3584 2284 3584 
Q 2666 3584 2933 3390 
Q 3200 3197 3328 2828 
z
" transform="scale(0.015625)"/>
       <path id="DejaVuSans-65" d="M 3597 1894 
L 3597 1613 
L 953 1613 
Q 991 1019 1311 708 
Q 1631 397 2203 397 
Q 2534 397 2845 478 
Q 3156 559 3463 722 
L 3463 178 
Q 3153 47 2828 -22 
Q 2503 -91 2169 -91 
Q 1331 -91 842 396 
Q 353 884 353 1716 
Q 353 2575 817 3079 
Q 1281 3584 2069 3584 
Q 2775 3584 3186 3129 
Q 3597 2675 3597 1894 
z
M 3022 2063 
Q 3016 2534 2758 2815 
Q 2500 3097 2075 3097 
Q 1594 3097 1305 2825 
Q 1016 2553 972 2059 
L 3022 2063 
z
" transform="scale(0.015625)"/>
       <path id="DejaVuSans-20" transform="scale(0.015625)"/>
       <path id="DejaVuSans-28" d="M 1984 4856 
Q 1566 4138 1362 3434 
Q 1159 2731 1159 2009 
Q 1159 1288 1364 580 
Q 1569 -128 1984 -844 
L 1484 -844 
Q 1016 -109 783 600 
Q 550 1309 550 2009 
Q 550 2706 781 3412 
Q 1013 4119 1484 4856 
L 1984 4856 
z
" transform="scale(0.015625)"/>
       <path id="DejaVuSans-73" d="M 2834 3397 
L 2834 2853 
Q 2591 2978 2328 3040 
Q 2066 3103 1784 3103 
Q 1356 3103 1142 2972 
Q 928 2841 928 2578 
Q 928 2378 1081 2264 
Q 1234 2150 1697 2047 
L 1894 2003 
Q 2506 1872 2764 1633 
Q 3022 1394 3022 966 
Q 3022 478 2636 193 
Q 2250 -91 1575 -91 
Q 1294 -91 989 -36 
Q 684 19 347 128 
L 347 722 
Q 666 556 975 473 
Q 1284 391 1588 391 
Q 1994 391 2212 530 
Q 2431 669 2431 922 
Q 2431 1156 2273 1281 
Q 2116 1406 1581 1522 
L 1381 1569 
Q 847 1681 609 1914 
Q 372 2147 372 2553 
Q 372 3047 722 3315 
Q 1072 3584 1716 3584 
Q 2034 3584 2315 3537 
Q 2597 3491 2834 3397 
z
" transform="scale(0.015625)"/>
       <path id="DejaVuSans-29" d="M 513 4856 
L 1013 4856 
Q 1481 4119 1714 3412 
Q 1947 2706 1947 2009 
Q 1947 1309 1714 600 
Q 1481 -109 1013 -844 
L 513 -844 
Q 928 -128 1133 580 
Q 1338 1288 1338 2009 
Q 1338 2731 1133 3434 
Q 928 4138 513 4856 
z
" transform="scale(0.015625)"/>
      </defs>
      <use xlink:href="#DejaVuSans-54"/>
      <use xlink:href="#DejaVuSans-69" transform="translate(57.958984 0)"/>
      <use xlink:href="#DejaVuSans-6d" transform="translate(85.742188 0)"/>
      <use xlink:href="#DejaVuSans-65" transform="translate(183.154297 0)"/>
      <use xlink:href="#DejaVuSans-20" transform="translate(244.677734 0)"/>
      <use xlink:href="#DejaVuSans-28" transform="translate(276.464844 0)"/>
      <use xlink:href="#DejaVuSans-6d" transform="translate(315.478516 0)"/>
      <use xlink:href="#DejaVuSans-73" transform="translate(412.890625 0)"/>
      <use xlink:href="#DejaVuSans-29" transform="translate(464.990234 0)"/>
     </g>
    </g>
   </g>
   <g id="matplotlib.axis_2">
    <g id="ytick_1">
     <g id="line2d_23">
      <defs>
       <path id="mc6b857bc35" d="M 0 0 
L -3.5 0 
" style="stroke: #000000; stroke-width: 0.8"/>
      </defs>
      <g>
       <use xlink:href="#mc6b857bc35" x="55.198438" y="27" style="stroke: #000000; stroke-width: 0.8"/>
      </g>
     </g>
     <g id="text_13">
      <!-- Rank 0 -->
      <g transform="translate(13.678125 30.799219) scale(0.1 -0.1)">
       <defs>
        <path id="DejaVuSans-52" d="M 2841 2188 
Q 3044 2119 3236 1894 
Q 3428 1669 3622 1275 
L 4263 0 
L 3584 0 
L 2988 1197 
Q 2756 1666 2539 1819 
Q 2322 1972 1947 1972 
L 1259 1972 
L 1259 0 
L 628 0 
L 628 4666 
L 2053 4666 
Q 2853 4666 3247 4331 
Q 3641 3997 3641 3322 
Q 3641 2881 3436 2590 
Q 3231 2300 2841 2188 
z
M 1259 4147 
L 1259 2491 
L 2053 2491 
Q 2509 2491 2742 2702 
Q 2975 2913 2975 3322 
Q 2975 3731 2742 3939 
Q 2509 4147 2053 4147 
L 1259 4147 
z
" transform="scale(0.015625)"/>
        <path id="DejaVuSans-61" d="M 2194 1759 
Q 1497 1759 1228 1600 
Q 959 1441 959 1056 
Q 959 750 1161 570 
Q 1363 391 1709 391 
Q 2188 391 2477 730 
Q 2766 1069 2766 1631 
L 2766 1759 
L 2194 1759 
z
M 3341 1997 
L 3341 0 
L 2766 0 
L 2766 531 
Q 2569 213 2275 61 
Q 1981 -91 1556 -91 
Q 1019 -91 701 211 
Q 384 513 384 1019 
Q 384 1609 779 1909 
Q 1175 2209 1959 2209 
L 2766 2209 
L 2766 2266 
Q 2766 2663 2505 2880 
Q 2244 3097 1772 3097 
Q 1472 3097 1187 3025 
Q 903 2953 641 2809 
L 641 3341 
Q 956 3463 1253 3523 
Q 1550 3584 1831 3584 
Q 2591 3584 2966 3190 
Q 3341 2797 3341 1997 
z
" transform="scale(0.015625)"/>
        <path id="DejaVuSans-6e" d="M 3513 2113 
L 3513 0 
L 2938 0 
L 2938 2094 
Q 2938 2591 2744 2837 
Q 2550 3084 2163 3084 
Q 1697 3084 1428 2787 
Q 1159 2491 1159 1978 
L 1159 0 
L 581 0 
L 581 3500 
L 1159 3500 
L 1159 2956 
Q 1366 3272 1645 3428 
Q 1925 3584 2291 3584 
Q 2894 3584 3203 3211 
Q 3513 2838 3513 2113 
z
" transform="scale(0.015625)"/>
        <path id="DejaVuSans-6b" d="M 581 4863 
L 1159 4863 
L 1159 1991 
L 2875 3500 
L 3609 3500 
L 1753 1863 
L 3688 0 
L 2938 0 
L 1159 1709 
L 1159 0 
L 581 0 
L 581 4863 
z
" transform="scale(0.015625)"/>
       </defs>
       <use xlink:href="#DejaVuSans-52"/>
       <use xlink:href="#DejaVuSans-61" transform="translate(67.232422 0)"/>
       <use xlink:href="#DejaVuSans-6e" transform="translate(128.511719 0)"/>
       <use xlink:href="#DejaVuSans-6b" transform="translate(191.890625 0)"/>
       <use xlink:href="#DejaVuSans-20" transform="translate(249.800781 0)"/>
       <use xlink:href="#DejaVuSans-30" transform="translate(281.587891 0)"/>
      </g>
     </g>
    </g>
    <g id="ytick_2">
     <g id="line2d_24">
      <g>
       <use xlink:href="#mc6b857bc35" x="55.198438" y="81" style="stroke: #000000; stroke-width: 0.8"/>
      </g>
     </g>
     <g id="text_14">
      <!-- Rank 1 -->
      <g transform="translate(13.678125 84.799219) scale(0.1 -0.1)">
       <use xlink:href="#DejaVuSans-52"/>
       <use xlink:href="#DejaVuSans-61" transform="translate(67.232422 0)"/>
       <use xlink:href="#DejaVuSans-6e" transform="translate(128.511719 0)"/>
       <use xlink:href="#DejaVuSans-6b" transform="translate(191.890625 0)"/>
       <use xlink:href="#DejaVuSans-20" transform="translate(249.800781 0)"/>
       <use xlink:href="#DejaVuSans-31" transform="translate(281.587891 0)"/>
      </g>
     </g>
    </g>
    <g id="ytick_3">
     <g id="line2d_25">
      <g>
       <use xlink:href="#mc6b857bc35" x="55.198438" y="135" style="stroke: #000000; stroke-width: 0.8"/>
      </g>
     </g>
     <g id="text_15">
      <!-- Rank 2 -->
      <g transform="translate(13.678125 138.799219) scale(0.1 -0.1)">
       <use xlink:href="#DejaVuSans-52"/>
       <use xlink:href="#DejaVuSans-61" transform="translate(67.232422 0)"/>
       <use xlink:href="#DejaVuSans-6e" transform="translate(128.511719 0)"/>
       <use xlink:href="#DejaVuSans-6b" transform="translate(191.890625 0)"/>
       <use xlink:href="#DejaVuSans-20" transform="translate(249.800781 0)"/>
       <use xlink:href="#DejaVuSans-32" transform="translate(281.587891 0)"/>
      </g>
     </g>
    </g>
    <g id="ytick_4">
     <g id="line2d_26">
      <g>
       <use xlink:href="#mc6b857bc35" x="55.198438" y="189" style="stroke: #000000; stroke-width: 0.8"/>
      </g>
     </g>
     <g id="text_16">
      <!-- Rank 3 -->
      <g transform="translate(13.678125 192.799219) scale(0.1 -0.1)">
       <use xlink:href="#DejaVuSans-52"/>
       <use xlink:href="#DejaVuSans-61" transform="translate(67.232422 0)"/>
       <use xlink:href="#DejaVuSans-6e" transform="translate(128.511719 0)"/>
       <use xlink:href="#DejaVuSans-6b" transform="translate(191.890625 0)"/>
       <use xlink:href="#DejaVuSans-20" transform="translate(249.800781 0)"/>
       <use xlink:href="#DejaVuSans-33" transform="translate(281.587891 0)"/>
      </g>
     </g>
    </g>
    <g id="text_17">
     <!-- Rank -->
     <g transform="translate(7.598438 120.489844) rotate(-90) scale(0.1 -0.1)">
      <use xlink:href="#DejaVuSans-52"/>
      <use xlink:href="#DejaVuSans-61" transform="translate(67.232422 0)"/>
      <use xlink:href="#DejaVuSans-6e" transform="translate(128.511719 0)"/>
      <use xlink:href="#DejaVuSans-6b" transform="translate(191.890625 0)"/>
     </g>
    </g>
   </g>
   <g id="patch_67">
    <path d="M 55.198438 216 
L 55.198438 0 
" style="fill: none; stroke: #000000; stroke-width: 0.8; stroke-linejoin: miter; stroke-linecap: square"/>
   </g>
   <g id="patch_68">
    <path d="M 2287.198438 216 
L 2287.198438 0 
" style="fill: none"/>
   </g>
   <g id="patch_69">
    <path d="M 55.198438 216 
L 2287.198438 216 
" style="fill: none; stroke: #000000; stroke-width: 0.8; stroke-linejoin: miter; stroke-linecap: square"/>
   </g>
   <g id="patch_70">
    <path d="M 55.198438 0 
L 2287.198438 0 
" style="fill: none"/>
   </g>
   <g id="text_18">
    <!-- 1 -->
    <g style="fill: #ffffff" transform="translate(70.1316 31.139063) scale(0.15 -0.15)">
     <use xlink:href="#DejaVuSans-31"/>
    </g>
   </g>
   <g id="text_19">
    <!-- 2 -->
    <g style="fill: #ffffff" transform="translate(109.967454 31.139063) scale(0.15 -0.15)">
     <use xlink:href="#DejaVuSans-32"/>
    </g>
   </g>
   <g id="text_20">
    <!-- 3 -->
    <g style="fill: #ffffff" transform="translate(156.155926 31.139063) scale(0.15 -0.15)">
     <use xlink:href="#DejaVuSans-33"/>
    </g>
   </g>
   <g id="text_21">
    <!-- 4 -->
    <g style="fill: #ffffff" transform="translate(209.395293 31.139063) scale(0.15 -0.15)">
     <use xlink:href="#DejaVuSans-34"/>
    </g>
   </g>
   <g id="text_22">
    <!-- 5 -->
    <g style="fill: #ffffff" transform="translate(264.031214 31.139063) scale(0.15 -0.15)">
     <use xlink:href="#DejaVuSans-35"/>
    </g>
   </g>
   <g id="text_23">
    <!-- 6 -->
    <g style="fill: #ffffff" transform="translate(319.467599 31.139063) scale(0.15 -0.15)">
     <use xlink:href="#DejaVuSans-36"/>
    </g>
   </g>
   <g id="text_24">
    <!-- 7 -->
    <g style="fill: #ffffff" transform="translate(375.500074 31.139063) scale(0.15 -0.15)">
     <use xlink:href="#DejaVuSans-37"/>
    </g>
   </g>
   <g id="text_25">
    <!-- 8 -->
    <g style="fill: #ffffff" transform="translate(431.668799 31.139063) scale(0.15 -0.15)">
     <use xlink:href="#DejaVuSans-38"/>
    </g>
   </g>
   <g id="text_26">
    <!-- 1 -->
    <g style="fill: #ffffff" transform="translate(1167.329213 31.139063) scale(0.15 -0.15)">
     <use xlink:href="#DejaVuSans-31"/>
    </g>
   </g>
   <g id="text_27">
    <!-- 2 -->
    <g style="fill: #ffffff" transform="translate(1326.161695 31.139063) scale(0.15 -0.15)">
     <use xlink:href="#DejaVuSans-32"/>
    </g>
   </g>
   <g id="text_28">
    <!-- 3 -->
    <g style="fill: #ffffff" transform="translate(1480.804514 31.139063) scale(0.15 -0.15)">
     <use xlink:href="#DejaVuSans-33"/>
    </g>
   </g>
   <g id="text_29">
    <!-- 4 -->
    <g style="fill: #ffffff" transform="translate(1633.369533 31.139063) scale(0.15 -0.15)">
     <use xlink:href="#DejaVuSans-34"/>
    </g>
   </g>
   <g id="text_30">
    <!-- 5 -->
    <g style="fill: #ffffff" transform="translate(1787.09267 31.139063) scale(0.15 -0.15)">
     <use xlink:href="#DejaVuSans-35"/>
    </g>
   </g>
   <g id="text_31">
    <!-- 6 -->
    <g style="fill: #ffffff" transform="translate(1939.38519 31.139063) scale(0.15 -0.15)">
     <use xlink:href="#DejaVuSans-36"/>
    </g>
   </g>
   <g id="text_32">
    <!-- 7 -->
    <g style="fill: #ffffff" transform="translate(2092.427081 31.139063) scale(0.15 -0.15)">
     <use xlink:href="#DejaVuSans-37"/>
    </g>
   </g>
   <g id="text_33">
    <!-- 8 -->
    <g style="fill: #ffffff" transform="translate(2244.821789 31.139063) scale(0.15 -0.15)">
     <use xlink:href="#DejaVuSans-38"/>
    </g>
   </g>
   <g id="text_34">
    <!-- 1 -->
    <g style="fill: #ffffff" transform="translate(113.050092 85.139063) scale(0.15 -0.15)">
     <use xlink:href="#DejaVuSans-31"/>
    </g>
   </g>
   <g id="text_35">
    <!-- 2 -->
    <g style="fill: #ffffff" transform="translate(160.07309 85.139063) scale(0.15 -0.15)">
     <use xlink:href="#DejaVuSans-32"/>
    </g>
   </g>
   <g id="text_36">
    <!-- 3 -->
    <g style="fill: #ffffff" transform="translate(210.417162 85.139063) scale(0.15 -0.15)">
     <use xlink:href="#DejaVuSans-33"/>
    </g>
   </g>
   <g id="text_37">
    <!-- 4 -->
    <g style="fill: #ffffff" transform="translate(267.897284 85.139063) scale(0.15 -0.15)">
     <use xlink:href="#DejaVuSans-34"/>
    </g>
   </g>
   <g id="text_38">
    <!-- 5 -->
    <g style="fill: #ffffff" transform="translate(331.270184 85.139063) scale(0.15 -0.15)">
     <use xlink:href="#DejaVuSans-35"/>
    </g>
   </g>
   <g id="text_39">
    <!-- 6 -->
    <g style="fill: #ffffff" transform="translate(394.813395 85.139063) scale(0.15 -0.15)">
     <use xlink:href="#DejaVuSans-36"/>
    </g>
   </g>
   <g id="text_40">
    <!-- 7 -->
    <g style="fill: #ffffff" transform="translate(454.950377 85.139063) scale(0.15 -0.15)">
     <use xlink:href="#DejaVuSans-37"/>
    </g>
   </g>
   <g id="text_41">
    <!-- 8 -->
    <g style="fill: #ffffff" transform="translate(511.476756 85.139063) scale(0.15 -0.15)">
     <use xlink:href="#DejaVuSans-38"/>
    </g>
   </g>
   <g id="text_42">
    <!-- 1 -->
    <g style="fill: #ffffff" transform="translate(1090.723112 85.139063) scale(0.15 -0.15)">
     <use xlink:href="#DejaVuSans-31"/>
    </g>
   </g>
   <g id="text_43">
    <!-- 2 -->
    <g style="fill: #ffffff" transform="translate(1247.920603 85.139063) scale(0.15 -0.15)">
     <use xlink:href="#DejaVuSans-32"/>
    </g>
   </g>
   <g id="text_44">
    <!-- 3 -->
    <g style="fill: #ffffff" transform="translate(1401.916239 85.139063) scale(0.15 -0.15)">
     <use xlink:href="#DejaVuSans-33"/>
    </g>
   </g>
   <g id="text_45">
    <!-- 4 -->
    <g style="fill: #ffffff" transform="translate(1554.787818 85.139063) scale(0.15 -0.15)">
     <use xlink:href="#DejaVuSans-34"/>
    </g>
   </g>
   <g id="text_46">
    <!-- 5 -->
    <g style="fill: #ffffff" transform="translate(1708.238457 85.139063) scale(0.15 -0.15)">
     <use xlink:href="#DejaVuSans-35"/>
    </g>
   </g>
   <g id="text_47">
    <!-- 6 -->
    <g style="fill: #ffffff" transform="translate(1860.735351 85.139063) scale(0.15 -0.15)">
     <use xlink:href="#DejaVuSans-36"/>
    </g>
   </g>
   <g id="text_48">
    <!-- 7 -->
    <g style="fill: #ffffff" transform="translate(2013.538806 85.139063) scale(0.15 -0.15)">
     <use xlink:href="#DejaVuSans-37"/>
    </g>
   </g>
   <g id="text_49">
    <!-- 8 -->
    <g style="fill: #ffffff" transform="translate(2166.035701 85.139063) scale(0.15 -0.15)">
     <use xlink:href="#DejaVuSans-38"/>
    </g>
   </g>
   <g id="text_50">
    <!-- 1 -->
    <g style="fill: #ffffff" transform="translate(154.418749 139.139063) scale(0.15 -0.15)">
     <use xlink:href="#DejaVuSans-31"/>
    </g>
   </g>
   <g id="text_51">
    <!-- 2 -->
    <g style="fill: #ffffff" transform="translate(202.463616 139.139063) scale(0.15 -0.15)">
     <use xlink:href="#DejaVuSans-32"/>
    </g>
   </g>
   <g id="text_52">
    <!-- 3 -->
    <g style="fill: #ffffff" transform="translate(256.145793 139.139063) scale(0.15 -0.15)">
     <use xlink:href="#DejaVuSans-33"/>
    </g>
   </g>
   <g id="text_53">
    <!-- 4 -->
    <g style="fill: #ffffff" transform="translate(318.156201 139.139063) scale(0.15 -0.15)">
     <use xlink:href="#DejaVuSans-34"/>
    </g>
   </g>
   <g id="text_54">
    <!-- 5 -->
    <g style="fill: #ffffff" transform="translate(382.85753 139.139063) scale(0.15 -0.15)">
     <use xlink:href="#DejaVuSans-35"/>
    </g>
   </g>
   <g id="text_55">
    <!-- 6 -->
    <g style="fill: #ffffff" transform="translate(444.919031 139.139063) scale(0.15 -0.15)">
     <use xlink:href="#DejaVuSans-36"/>
    </g>
   </g>
   <g id="text_56">
    <!-- 7 -->
    <g style="fill: #ffffff" transform="translate(502.910088 139.139063) scale(0.15 -0.15)">
     <use xlink:href="#DejaVuSans-37"/>
    </g>
   </g>
   <g id="text_57">
    <!-- 8 -->
    <g style="fill: #ffffff" transform="translate(557.954757 139.139063) scale(0.15 -0.15)">
     <use xlink:href="#DejaVuSans-38"/>
    </g>
   </g>
   <g id="text_58">
    <!-- 1 -->
    <g style="fill: #ffffff" transform="translate(1020.316348 139.139063) scale(0.15 -0.15)">
     <use xlink:href="#DejaVuSans-31"/>
    </g>
   </g>
   <g id="text_59">
    <!-- 2 -->
    <g style="fill: #ffffff" transform="translate(1175.759631 139.139063) scale(0.15 -0.15)">
     <use xlink:href="#DejaVuSans-32"/>
    </g>
   </g>
   <g id="text_60">
    <!-- 3 -->
    <g style="fill: #ffffff" transform="translate(1329.091052 139.139063) scale(0.15 -0.15)">
     <use xlink:href="#DejaVuSans-33"/>
    </g>
   </g>
   <g id="text_61">
    <!-- 4 -->
    <g style="fill: #ffffff" transform="translate(1482.320286 139.139063) scale(0.15 -0.15)">
     <use xlink:href="#DejaVuSans-34"/>
    </g>
   </g>
   <g id="text_62">
    <!-- 5 -->
    <g style="fill: #ffffff" transform="translate(1635.583582 139.139063) scale(0.15 -0.15)">
     <use xlink:href="#DejaVuSans-35"/>
    </g>
   </g>
   <g id="text_63">
    <!-- 6 -->
    <g style="fill: #ffffff" transform="translate(1788.301881 139.139063) scale(0.15 -0.15)">
     <use xlink:href="#DejaVuSans-36"/>
    </g>
   </g>
   <g id="text_64">
    <!-- 7 -->
    <g style="fill: #ffffff" transform="translate(1940.883931 139.139063) scale(0.15 -0.15)">
     <use xlink:href="#DejaVuSans-37"/>
    </g>
   </g>
   <g id="text_65">
    <!-- 8 -->
    <g style="fill: #ffffff" transform="translate(2093.414888 139.139063) scale(0.15 -0.15)">
     <use xlink:href="#DejaVuSans-38"/>
    </g>
   </g>
   <g id="text_66">
    <!-- 1 -->
    <g style="fill: #ffffff" transform="translate(201.441747 193.139063) scale(0.15 -0.15)">
     <use xlink:href="#DejaVuSans-31"/>
    </g>
   </g>
   <g id="text_67">
    <!-- 2 -->
    <g style="fill: #ffffff" transform="translate(265.529955 193.139063) scale(0.15 -0.15)">
     <use xlink:href="#DejaVuSans-32"/>
    </g>
   </g>
   <g id="text_68">
    <!-- 3 -->
    <g style="fill: #ffffff" transform="translate(340.977938 193.139063) scale(0.15 -0.15)">
     <use xlink:href="#DejaVuSans-33"/>
    </g>
   </g>
   <g id="text_69">
    <!-- 4 -->
    <g style="fill: #ffffff" transform="translate(424.430561 193.139063) scale(0.15 -0.15)">
     <use xlink:href="#DejaVuSans-34"/>
    </g>
   </g>
   <g id="text_70">
    <!-- 5 -->
    <g style="fill: #ffffff" transform="translate(511.493787 193.139063) scale(0.15 -0.15)">
     <use xlink:href="#DejaVuSans-35"/>
    </g>
   </g>
   <g id="text_71">
    <!-- 6 -->
    <g style="fill: #ffffff" transform="translate(599.612944 193.139063) scale(0.15 -0.15)">
     <use xlink:href="#DejaVuSans-36"/>
    </g>
   </g>
   <g id="text_72">
    <!-- 7 -->
    <g style="fill: #ffffff" transform="translate(688.31116 193.139063) scale(0.15 -0.15)">
     <use xlink:href="#DejaVuSans-37"/>
    </g>
   </g>
   <g id="text_73">
    <!-- 8 -->
    <g style="fill: #ffffff" transform="translate(777.213749 193.139063) scale(0.15 -0.15)">
     <use xlink:href="#DejaVuSans-38"/>
    </g>
   </g>
   <g id="text_74">
    <!-- 1 -->
    <g style="fill: #ffffff" transform="translate(905.560477 193.139063) scale(0.15 -0.15)">
     <use xlink:href="#DejaVuSans-31"/>
    </g>
   </g>
   <g id="text_75">
    <!-- 2 -->
    <g style="fill: #ffffff" transform="translate(1066.94763 193.139063) scale(0.15 -0.15)">
     <use xlink:href="#DejaVuSans-32"/>
    </g>
   </g>
   <g id="text_76">
    <!-- 3 -->
    <g style="fill: #ffffff" transform="translate(1221.045452 193.139063) scale(0.15 -0.15)">
     <use xlink:href="#DejaVuSans-33"/>
    </g>
   </g>
   <g id="text_77">
    <!-- 4 -->
    <g style="fill: #ffffff" transform="translate(1374.257655 193.139063) scale(0.15 -0.15)">
     <use xlink:href="#DejaVuSans-34"/>
    </g>
   </g>
   <g id="text_78">
    <!-- 5 -->
    <g style="fill: #ffffff" transform="translate(1527.537982 193.139063) scale(0.15 -0.15)">
     <use xlink:href="#DejaVuSans-35"/>
    </g>
   </g>
   <g id="text_79">
    <!-- 6 -->
    <g style="fill: #ffffff" transform="translate(1680.545811 193.139063) scale(0.15 -0.15)">
     <use xlink:href="#DejaVuSans-36"/>
    </g>
   </g>
   <g id="text_80">
    <!-- 7 -->
    <g style="fill: #ffffff" transform="translate(1833.213017 193.139063) scale(0.15 -0.15)">
     <use xlink:href="#DejaVuSans-37"/>
    </g>
   </g>
   <g id="text_81">
    <!-- 8 -->
    <g style="fill: #ffffff" transform="translate(1985.743974 193.139063) scale(0.15 -0.15)">
     <use xlink:href="#DejaVuSans-38"/>
    </g>
   </g>
  </g>
 </g>
 <defs>
  <clipPath id="p2a79efd076">
   <rect x="55.198438" y="0" width="2232" height="216"/>
  </clipPath>
 </defs>
</svg>
